<svg width="688" height="697" viewBox="0 0 688 697" fill="none" xmlns="http://www.w3.org/2000/svg">
<path d="M121.357 376.202L118.931 355.706L109.89 356.772L112.316 377.269L75.1173 381.667L76.3344 391.94L122.565 386.479L121.357 376.202Z" fill="black"/>
<path d="M85.5651 349.057C88.3602 350.509 91.4711 351.366 94.8887 351.634C98.2617 351.896 101.459 351.53 104.466 350.521C107.475 349.521 110.164 347.99 112.53 345.926C114.897 343.862 116.81 341.399 118.266 338.528C119.725 335.666 120.587 332.479 120.855 328.976C121.123 325.559 120.753 322.32 119.758 319.266C118.763 316.212 117.256 313.504 115.259 311.145C113.262 308.786 110.853 306.874 108.026 305.423C105.209 303.969 102.111 303.118 98.7343 302.846C95.3168 302.579 92.1002 302.951 89.0906 303.951C86.081 304.951 83.4022 306.479 81.0601 308.523C78.7181 310.568 76.8332 313.02 75.3962 315.884C73.9592 318.749 73.1092 321.91 72.8368 325.372C72.5593 328.878 72.9114 332.156 73.8965 335.213C74.8688 338.265 76.363 340.966 78.3604 343.326C80.3577 345.685 82.7539 347.59 85.5583 349.038L85.5651 349.057ZM82.2495 326.118C82.4052 324.06 82.8925 322.212 83.7019 320.577C84.5114 318.941 85.6157 317.56 87.0054 316.437C88.3951 315.314 89.9985 314.486 91.8318 313.968C93.6557 313.453 95.6659 313.274 97.8565 313.445C100.748 313.67 103.262 314.437 105.379 315.752C107.506 317.063 109.097 318.804 110.166 320.98C111.234 323.156 111.656 325.631 111.447 328.388C111.282 330.449 110.789 332.31 109.954 333.965C109.12 335.62 108.016 337.001 106.619 338.106C105.236 339.216 103.612 340.019 101.77 340.541C99.9237 341.053 97.904 341.235 95.7134 341.064C92.7778 340.834 90.264 340.068 88.191 338.758C86.1085 337.451 84.5488 335.71 83.5024 333.537C82.456 331.363 82.0469 328.894 82.2563 326.136L82.2495 326.118Z" fill="black"/>
<path d="M92.7231 287.475C95.1483 289.518 97.9742 291.055 101.203 292.061C104.432 293.067 107.627 293.426 110.782 293.118C113.941 292.82 116.897 291.936 119.663 290.472C122.419 289.011 124.82 287.041 126.86 284.574C128.896 282.099 130.44 279.206 131.469 275.894C132.595 272.292 133.022 268.934 132.754 265.828C132.476 262.726 131.687 259.799 130.384 257.038L121.627 261.63C122.5 263.239 123.044 264.999 123.226 266.901C123.417 268.801 123.155 270.886 122.448 273.155C121.843 275.088 120.958 276.751 119.779 278.159C118.599 279.568 117.227 280.652 115.648 281.429C114.069 282.206 112.321 282.64 110.395 282.756C108.468 282.872 106.465 282.601 104.362 281.94C102.307 281.294 100.517 280.381 99.001 279.198C97.4816 278.006 96.2962 276.65 95.438 275.11C94.5832 273.581 94.0786 271.902 93.9371 270.08C93.7956 268.259 94.0198 266.39 94.6249 264.456C95.3086 262.27 96.259 260.467 97.4914 259.028C98.7238 257.59 100.152 256.485 101.772 255.704L97.1632 247.016C94.5484 248.457 92.2439 250.371 90.2531 252.766C88.2623 255.162 86.7108 258.121 85.6115 261.65C84.5727 264.965 84.1935 268.221 84.461 271.412C84.7285 274.603 85.5658 277.576 86.966 280.312C88.3697 283.057 90.2824 285.447 92.6983 287.494L92.7231 287.475Z" fill="black"/>
<path d="M141.973 247.415L136.108 240.599L144.992 224.66L153.848 226.097L159.18 216.537L109.628 209.831L105.071 218.013L136.75 256.807L141.986 247.421L141.973 247.415ZM130.244 233.784L118.704 220.383L136.124 223.216L130.234 233.788L130.244 233.784Z" fill="black"/>
<path d="M163.106 198.145L134.46 174.028L127.786 181.948L163.406 211.923L170.071 204.007L183.362 188.218L176.398 182.357L163.106 198.145Z" fill="black"/>
<path d="M208.842 165.217C211.96 164.486 214.94 163.114 217.774 161.104C220.862 158.916 223.232 156.51 224.89 153.874C226.548 151.238 227.699 148.435 228.336 145.447L218.591 143.79C218.315 145.604 217.676 147.326 216.67 148.948C215.667 150.58 214.199 152.072 212.263 153.447C210.615 154.621 208.89 155.409 207.111 155.812C205.322 156.218 203.567 156.25 201.846 155.908C200.125 155.566 198.464 154.862 196.859 153.786C195.264 152.706 193.827 151.271 192.556 149.477C191.309 147.718 190.441 145.916 189.963 144.047C189.475 142.181 189.353 140.385 189.603 138.644C189.853 136.904 190.469 135.264 191.456 133.734C192.442 132.205 193.759 130.853 195.407 129.679C197.269 128.362 199.124 127.495 200.97 127.1C202.817 126.705 204.632 126.693 206.391 127.053L207.999 117.348C205.051 116.91 202.053 117.033 199.019 117.733C195.985 118.432 192.955 119.844 189.945 121.982C187.112 123.993 184.838 126.342 183.109 129.047C181.389 131.748 180.253 134.619 179.703 137.64C179.156 140.67 179.227 143.73 179.91 146.833C180.602 149.934 181.922 152.859 183.873 155.618C185.834 158.373 188.153 160.594 190.85 162.273C193.543 163.942 196.433 165.04 199.512 165.548C202.592 166.055 205.692 165.948 208.82 165.214L208.842 165.217Z" fill="black"/>
<path d="M227.036 101.36L217.785 106.002L238.665 147.607L247.915 142.964L227.036 101.36Z" fill="black"/>
<path d="M268.298 134.488L278.117 131.202L266.208 95.6192L280.02 90.9965L277.157 82.429L239.706 94.9641L242.569 103.532L256.39 98.9054L268.298 134.488Z" fill="black"/>
<path d="M310.794 93.8855L298.688 78.3705L286.799 79.9734L306.96 104.667L309.557 123.877L319.813 122.496L317.174 102.876L329.988 74.1399L318.355 75.7137L310.794 93.8855Z" fill="black"/>
<path d="M388.939 95.6761L392.484 126.205L400.473 127.628L423.363 84.4132L413.305 82.6254L399.431 109.853L395.964 79.5403L387.985 78.1133L374.315 105.288L370.647 75.0376L360.519 73.2328L367.098 121.685L375.086 123.108L388.939 95.6761Z" fill="black"/>
<path d="M445.695 135.655L445.136 144.617L455.182 148.974L456.945 98.9967L448.353 95.2709L412.892 130.642L422.749 134.919L428.945 128.407L445.689 135.668L445.695 135.655ZM435.151 121.891L447.344 109.078L446.253 126.694L435.157 121.879L435.151 121.891Z" fill="black"/>
<path d="M468.74 158.565L485.784 170.218L490.915 162.711L473.881 151.054L495.023 120.138L486.48 114.298L460.197 152.724L468.74 158.565Z" fill="black"/>
<path d="M498.734 182.085L515.022 165.962L511.266 194.732L520.306 203.871L523.935 172.849L552.931 170.649L543.93 161.559L516.898 164.098L531.828 149.331L524.54 141.97L491.456 174.72L498.734 182.085Z" fill="black"/>
<path d="M570.485 194.142C568.679 191.49 566.636 189.445 564.37 188.014C562.095 186.586 559.718 185.876 557.223 185.89C554.74 185.911 552.31 186.72 549.947 188.326C547.984 189.657 546.581 191.094 545.734 192.626C544.887 194.158 544.402 195.75 544.279 197.401C544.157 199.053 544.24 200.715 544.541 202.361C544.846 204.017 545.213 205.639 545.652 207.224C546.09 208.81 546.441 210.3 546.694 211.698C546.948 213.095 546.975 214.341 546.768 215.438C546.561 216.535 545.925 217.448 544.875 218.16C543.717 218.954 542.461 219.07 541.129 218.512C539.798 217.954 538.507 216.774 537.271 214.957C535.916 212.96 535.105 210.935 534.862 208.895C534.62 206.855 534.783 204.731 535.356 202.533L526.066 200.721C525.243 204.043 525.082 207.198 525.59 210.174C526.099 213.149 527.429 216.219 529.581 219.384C532.719 223.999 536.224 226.906 540.098 228.103C543.971 229.301 547.737 228.654 551.414 226.155C553.411 224.801 554.873 223.321 555.789 221.743C556.704 220.165 557.248 218.53 557.404 216.856C557.571 215.178 557.506 213.509 557.217 211.837C556.931 210.175 556.57 208.54 556.131 206.954C555.692 205.368 555.323 203.885 555.029 202.524C554.733 201.152 554.665 199.943 554.819 198.876C554.973 197.808 555.545 196.951 556.523 196.276C557.582 195.561 558.68 195.448 559.835 195.933C560.994 196.426 562.077 197.415 563.086 198.9C564.098 200.394 564.718 201.924 564.942 203.502C565.165 205.081 565.069 206.862 564.661 208.84L573.951 210.652C574.602 208.085 574.632 205.36 574.063 202.481C573.484 199.606 572.288 196.816 570.459 194.13L570.485 194.142Z" fill="black"/>
<path d="M168.155 495.012L161.663 487.552L128.102 516.741L134.594 524.2L147.535 539.082L154.088 533.376L141.148 518.495L168.155 495.012Z" fill="black"/>
<path d="M208.339 549.632C209.174 546.721 209.417 543.791 209.067 540.843C208.718 537.894 207.799 535.079 206.315 532.405C204.831 529.731 202.796 527.354 200.208 525.274C197.588 523.163 194.814 521.682 191.886 520.8C188.949 519.922 186.015 519.638 183.081 519.94C180.138 520.245 177.343 521.103 174.689 522.526C172.036 523.949 169.683 525.934 167.633 528.489C165.601 531.006 164.176 533.727 163.342 536.638C162.507 539.549 162.262 542.501 162.621 545.478C162.972 548.458 163.888 551.295 165.356 553.985C166.825 556.675 168.871 559.081 171.487 561.182C174.043 563.232 176.787 564.691 179.731 565.557C182.674 566.422 185.614 566.693 188.561 566.398C191.504 566.092 194.305 565.222 196.974 563.782C199.642 562.343 201.986 560.362 204.018 557.845C206.068 555.29 207.511 552.562 208.356 549.647L208.339 549.632ZM196.146 551.42C194.408 553.574 192.445 555.14 190.266 556.114C188.085 557.078 185.851 557.402 183.557 557.066C181.264 556.73 179.092 555.733 177.032 554.078C175.495 552.838 174.296 551.444 173.444 549.892C172.592 548.34 172.098 546.721 171.973 545.032C171.848 543.343 172.086 541.629 172.668 539.895C173.259 538.158 174.21 536.471 175.528 534.831C177.294 532.635 179.247 531.073 181.408 530.137C183.559 529.205 185.781 528.907 188.059 529.26C190.336 529.612 192.508 530.609 194.572 532.274C196.109 533.513 197.301 534.888 198.152 536.408C199.004 537.929 199.494 539.538 199.635 541.243C199.777 542.947 199.558 544.655 198.981 546.376C198.405 548.097 197.461 549.771 196.142 551.411L196.146 551.42Z" fill="black"/>
<path d="M219.069 572.501C219.275 570.67 219.857 568.82 220.815 566.949C221.755 565.117 222.899 563.583 224.27 562.35C225.632 561.12 227.104 560.223 228.686 559.658C230.271 559.102 231.933 558.901 233.661 559.06C235.399 559.215 237.122 559.737 238.848 560.62C240.795 561.614 242.337 562.809 243.491 564.198C244.646 565.586 245.456 567.111 245.922 568.772L254.849 565.842C253.921 563.147 252.487 560.668 250.555 558.402C248.624 556.136 246.091 554.206 242.95 552.593C239.995 551.083 236.991 550.197 233.947 549.932C230.893 549.67 227.969 549.969 225.161 550.852C222.351 551.726 219.789 553.137 217.467 555.089C215.144 557.041 213.255 559.453 211.78 562.331C210.306 565.209 209.453 568.158 209.235 571.185C209.005 574.206 209.36 577.142 210.295 579.973C211.22 582.807 212.692 585.39 214.685 587.708C216.678 590.026 219.154 591.945 222.109 593.455C225.327 595.104 228.414 596.045 231.376 596.287C234.337 596.528 237.231 596.263 240.031 595.477L237.131 586.487C235.476 587.057 233.736 587.276 231.91 587.142C230.088 587.018 228.171 586.428 226.146 585.398C224.42 584.516 222.998 583.416 221.87 582.07C220.736 580.738 219.933 579.263 219.462 577.647C218.991 576.031 218.855 574.314 219.062 572.483L219.069 572.501Z" fill="black"/>
<path d="M275.531 566.413L246.068 604.113L255.922 607.007L261.029 600.104L277.759 605.019L278.287 613.574L288.32 616.521L284.119 568.927L275.537 566.4L275.531 566.413ZM266.146 593.198L276.198 579.621L277.228 596.454L266.136 593.201L266.146 593.198Z" fill="black"/>
<path d="M315.697 575.195L305.869 574.1L300.94 618.302L308.514 619.142L308.518 619.151L330.368 621.585L331.331 612.944L311.73 610.756L315.697 575.195Z" fill="black"/>
<path d="M365.704 592.74C366.139 590.953 366.856 589.383 367.857 588.04C368.854 586.687 370.118 585.599 371.642 584.757C373.166 583.915 374.885 583.375 376.811 583.142C378.981 582.874 380.933 583.004 382.658 583.504C384.386 584.014 385.914 584.82 387.232 585.926L392.989 578.499C390.706 576.787 388.135 575.541 385.269 574.743C382.403 573.945 379.219 573.763 375.716 574.197C372.424 574.597 369.439 575.546 366.765 577.03C364.095 578.523 361.834 580.41 359.998 582.706C358.163 585.002 356.833 587.604 356.001 590.525C355.17 593.445 354.953 596.504 355.345 599.713C355.736 602.923 356.683 605.846 358.19 608.468C359.692 611.103 361.629 613.325 363.988 615.159C366.344 616.983 369.006 618.302 371.957 619.101C374.908 619.9 378.036 620.102 381.328 619.702C384.916 619.269 388.006 618.314 390.595 616.861C393.194 615.405 395.431 613.569 397.316 611.35L389.878 605.533C388.821 606.929 387.499 608.091 385.923 608.995C384.341 609.911 382.427 610.501 380.176 610.778C378.259 611.007 376.453 610.899 374.77 610.426C373.087 609.953 371.595 609.187 370.3 608.115C369.005 607.043 367.931 605.7 367.08 604.062C366.222 602.437 365.671 600.573 365.412 598.486C365.16 596.45 365.26 594.53 365.695 592.743L365.704 592.74Z" fill="black"/>
<path d="M398.53 570.583L409.93 613.577L419.489 611.043L408.09 568.048L398.53 570.583Z" fill="black"/>
<path d="M449.487 552.54L414.557 566.828L417.825 574.812L430.711 569.547L444.287 602.724L453.438 598.979L439.871 565.798L452.754 560.524L449.487 552.54Z" fill="black"/>
<path d="M475.493 536.455L476.095 555.242L459.429 546.526L449.72 552.625L477.02 566.143L486.856 581.825L495.235 576.572L485.19 560.552L484.985 530.488L475.493 536.455Z" fill="black"/>
<path d="M530.476 484.315L545.702 509.219L519.292 496.888L514.142 502.679L529.426 527.392L502.967 515.249L496.433 522.587L539.174 541.456L544.328 535.675L528.919 510.677L555.539 523.06L560.689 517.269L536.965 477.026L530.476 484.315Z" fill="black"/>
<path d="M543.046 463.735L573.085 500.977L578.143 492.038L572.58 485.496L581.155 470.318L589.612 471.741L594.761 462.642L547.458 455.946L543.055 463.732L543.046 463.735ZM567.017 478.954L556.074 466.081L572.708 468.891L567.017 478.954Z" fill="black"/>
<path d="M601.049 419.978L594.454 438.554L560.74 426.593L557.427 435.909L599.344 450.789L602.654 441.465L609.245 422.88L601.049 419.978Z" fill="black"/>
<path d="M575.417 364.233L573.377 376.288L590.415 395.85L570.634 392.493L568.98 402.247L612.836 409.675L614.489 399.922L592.906 396.263L617.324 383.151L619.375 371.039L593.28 385.506L575.417 364.233Z" fill="black"/>
<path d="M606.767 330.23C604.458 330.229 602.519 330.605 600.942 331.36C599.365 332.115 598.067 333.109 597.028 334.349C595.999 335.585 595.15 336.937 594.473 338.408C593.804 339.875 593.206 341.359 592.705 342.85C592.196 344.345 591.692 345.709 591.194 346.944C590.687 348.182 590.091 349.176 589.397 349.929C588.702 350.681 587.786 351.058 586.66 351.063C585.445 351.058 584.508 350.559 583.863 349.548C583.209 348.541 582.894 347.177 582.894 345.453C582.894 343.729 583.238 342.188 583.903 340.829C584.578 339.466 585.607 338.112 586.99 336.768L580.636 330.333C578.746 332.011 577.254 334.139 576.161 336.719C575.067 339.299 574.518 342.148 574.512 345.258C574.51 348.323 575.017 351.033 576.043 353.384C577.069 355.735 578.568 357.573 580.541 358.899C582.513 360.224 584.863 360.89 587.596 360.885C589.864 360.89 591.749 360.513 593.24 359.757C594.732 359.001 595.976 358.005 596.961 356.764C597.949 355.532 598.772 354.168 599.422 352.707C600.078 351.234 600.657 349.757 601.157 348.266C601.658 346.775 602.193 345.41 602.732 344.171C603.28 342.928 603.93 341.936 604.687 341.181C605.445 340.427 606.434 340.045 607.649 340.05C608.99 340.052 610.04 340.627 610.793 341.79C611.547 342.952 611.923 344.571 611.924 346.678C611.923 348.987 611.469 351.015 610.562 352.761C609.654 354.506 608.388 356.085 606.747 357.512L613.101 363.947C615.54 361.761 617.36 359.364 618.554 356.737C619.751 354.12 620.351 350.975 620.362 347.32C620.368 341.987 619.166 337.806 616.755 334.778C614.344 331.75 611.016 330.237 606.78 330.236L606.767 330.23Z" fill="black"/>
<path d="M590.178 298.979C602.182 294.61 608.371 281.337 604.002 269.333C599.633 257.329 586.36 251.139 574.356 255.509C562.352 259.878 556.163 273.151 560.532 285.155C564.901 297.158 578.174 303.348 590.178 298.979Z" fill="#FF5500"/>
<path d="M125.914 467.957C137.918 463.588 144.108 450.315 139.739 438.311C135.369 426.307 122.096 420.118 110.093 424.487C98.0886 428.856 91.8993 442.129 96.2683 454.133C100.637 466.137 113.91 472.326 125.914 467.957Z" fill="#FF5500"/>
<path d="M414.138 537.577C518.852 499.465 572.843 383.68 534.731 278.966C496.618 174.252 380.834 120.261 276.119 158.374C171.405 196.487 117.414 312.271 155.527 416.985C193.64 521.699 309.424 575.69 414.138 537.577Z" fill="#FF5500"/>
<path d="M449.964 331.145C448.216 367.218 418.781 427.448 401.71 460.308C401.485 460.741 401.128 461.456 400.69 462.329L399.013 465.674L395.785 472.127C394.06 475.575 389.958 477.111 386.394 475.62L381.917 473.759L381.491 473.584C379.076 472.59 376.441 471.431 375.161 470.897C341.274 456.796 280.266 429.666 255.363 403.846C202.38 348.915 220.973 255.619 289.275 223.991C364.471 189.173 454.033 247.243 449.957 331.126L449.964 331.145Z" fill="white"/>
<path d="M305.894 336.992C312.937 334.428 315.548 323.839 311.727 313.34C307.906 302.841 299.099 296.408 292.056 298.972C285.014 301.535 282.402 312.124 286.224 322.623C290.045 333.122 298.852 339.555 305.894 336.992Z" fill="#FF5500"/>
<path d="M345.118 302.922C345.353 301.432 346.219 299.893 346.91 298.577C349.53 293.612 353.373 289.286 358.049 286.169C362.29 283.349 367.142 281.593 372.163 280.798C376.591 280.101 381.645 280.858 385.436 283.32C388.727 285.464 392.574 291.705 388.6 295.056C386.173 297.099 384.303 296.609 381.613 295.652C378.086 294.413 373.973 294.484 370.427 295.562C366.224 296.847 363.396 299.515 360.481 302.619C357.693 305.571 355.062 308.955 350.714 309.378C347.24 309.716 344.738 306.498 345.081 303.17C345.091 303.081 345.101 302.992 345.115 302.913L345.118 302.922Z" fill="#FF5500"/>
<path d="M392.824 326.923C384.197 327.254 385.461 336.573 383.46 342.42C378.745 356.162 366.501 365.502 353.421 370.732C340.043 375.143 324.66 375.858 312.212 368.352C306.921 365.159 301.889 357.211 295.077 362.5C294.319 363.691 291.926 365.946 296.264 374.093C298.964 377.974 319.966 400.765 358.982 386.011C398.355 372.234 399.793 341.275 399.367 336.567C397.453 327.537 394.171 327.348 392.824 326.923Z" fill="#FF5500"/>
</svg>
