<svg width="216" height="50" viewBox="0 0 216 50" fill="none" xmlns="http://www.w3.org/2000/svg">
<path d="M39.7435 28.6826C37.1851 34.8039 28.3512 43.3569 23.3579 47.9602C23.2912 48.0212 23.1853 48.1216 23.056 48.2457L22.558 48.7182L21.5993 49.6298C21.0857 50.1181 20.2858 50.124 19.7643 49.6436L19.1115 49.0411L19.0488 48.984C18.6959 48.6611 18.3155 48.2949 18.1273 48.1216C13.183 43.5557 4.38637 35.0343 1.72012 29.0095C-3.95153 16.1899 5.08626 1.24197 18.8135 0.0744047C33.9268 -1.21326 45.6955 14.4494 39.7435 28.6826Z" fill="white"/>
<path d="M14.5981 20.6336C15.9699 20.6336 17.082 18.9684 17.082 16.9143C17.082 14.8602 15.9699 13.1951 14.5981 13.1951C13.2263 13.1951 12.1142 14.8602 12.1142 16.9143C12.1142 18.9684 13.2263 20.6336 14.5981 20.6336Z" fill="#FF5500"/>
<path d="M23.4802 17.2137C23.6136 16.9695 23.8606 16.7588 24.0605 16.5757C24.8212 15.8827 25.7524 15.3767 26.7523 15.1325C27.658 14.912 28.603 14.914 29.5165 15.0932C30.3223 15.2507 31.1437 15.6996 31.6417 16.3631C32.075 16.94 32.3435 18.2591 31.4515 18.588C30.9065 18.7888 30.6164 18.586 30.2125 18.2513C29.6851 17.8142 28.9715 17.57 28.2952 17.5326C27.4914 17.4893 26.8385 17.7748 26.1426 18.1253C25.478 18.46 24.8134 18.8774 24.0409 18.6785C23.4234 18.519 23.194 17.8063 23.4606 17.253C23.4685 17.2393 23.4744 17.2235 23.4822 17.2097L23.4802 17.2137Z" fill="#FF5500"/>
<path d="M30.1806 24.3588C28.6769 23.8744 28.3103 25.5638 27.5986 26.4478C25.9283 28.525 23.2366 29.3697 20.6586 29.4484C18.0805 29.3697 15.3908 28.525 13.7185 26.4478C13.0068 25.5638 12.6402 23.8744 11.1365 24.3588C10.9307 24.5183 10.3778 24.7545 10.6151 26.436C10.8366 27.2767 13.0225 32.5337 20.6566 32.4372C28.2907 32.5317 30.4766 27.2767 30.6982 26.436C30.9354 24.7545 30.3825 24.5183 30.1767 24.3588H30.1806Z" fill="#FF5500"/>
<path d="M52.2131 31.3938V14.9757H55.8678V31.3938H52.2131ZM55.0298 31.3938V28.1846H63.1539V31.3938H55.0298Z" fill="white"/>
<path d="M70.2011 31.6496C69.0371 31.6496 67.9819 31.3938 67.0352 30.8822C66.1041 30.355 65.3669 29.6419 64.8238 28.7427C64.2806 27.8435 64.009 26.8358 64.009 25.7195C64.009 24.6033 64.2806 23.6033 64.8238 22.7196C65.3669 21.8359 66.1041 21.1383 67.0352 20.6267C67.9663 20.0996 69.0216 19.836 70.2011 19.836C71.3805 19.836 72.4358 20.0918 73.3669 20.6034C74.298 21.115 75.0352 21.8204 75.5783 22.7196C76.1215 23.6033 76.3931 24.6033 76.3931 25.7195C76.3931 26.8358 76.1215 27.8435 75.5783 28.7427C75.0352 29.6419 74.298 30.355 73.3669 30.8822C72.4358 31.3938 71.3805 31.6496 70.2011 31.6496ZM70.2011 28.4171C70.7132 28.4171 71.1632 28.3086 71.5512 28.0916C71.9392 27.859 72.234 27.5412 72.4358 27.1381C72.653 26.7195 72.7617 26.2466 72.7617 25.7195C72.7617 25.1924 72.653 24.7351 72.4358 24.3475C72.2185 23.9444 71.9159 23.6343 71.5279 23.4173C71.1555 23.1847 70.7132 23.0685 70.2011 23.0685C69.7045 23.0685 69.2622 23.1847 68.8742 23.4173C68.4862 23.6343 68.1836 23.9444 67.9664 24.3475C67.7491 24.7506 67.6404 25.2157 67.6404 25.7428C67.6404 26.2544 67.7491 26.7195 67.9664 27.1381C68.1836 27.5412 68.4862 27.859 68.8742 28.0916C69.2622 28.3086 69.7045 28.4171 70.2011 28.4171Z" fill="white"/>
<path d="M83.6366 31.6496C82.4727 31.6496 81.4174 31.3938 80.4708 30.8822C79.5241 30.3705 78.7792 29.6651 78.2361 28.7659C77.6929 27.8668 77.4213 26.859 77.4213 25.7428C77.4213 24.611 77.6929 23.6033 78.2361 22.7196C78.7947 21.8204 79.5474 21.115 80.4941 20.6034C81.4407 20.0918 82.5038 19.836 83.6832 19.836C84.5678 19.836 85.3747 19.991 86.1041 20.3011C86.849 20.5957 87.5086 21.0453 88.0828 21.6499L85.8015 23.9289C85.5377 23.6343 85.2273 23.4173 84.8704 23.2778C84.529 23.1382 84.1332 23.0685 83.6832 23.0685C83.1711 23.0685 82.7133 23.1847 82.3098 23.4173C81.9218 23.6343 81.6114 23.9444 81.3786 24.3475C81.1614 24.7351 81.0527 25.1924 81.0527 25.7195C81.0527 26.2466 81.1614 26.7118 81.3786 27.1148C81.6114 27.5179 81.9296 27.8357 82.333 28.0683C82.7365 28.3008 83.1866 28.4171 83.6832 28.4171C84.1488 28.4171 84.56 28.3396 84.9169 28.1846C85.2894 28.014 85.6075 27.7815 85.8713 27.4869L88.1293 29.7659C87.5396 30.3861 86.8723 30.8589 86.1274 31.1845C85.3825 31.4945 84.5522 31.6496 83.6366 31.6496Z" fill="white"/>
<path d="M94.1671 31.6263C93.1274 31.6263 92.1963 31.3705 91.3737 30.8589C90.5668 30.3473 89.9227 29.6496 89.4417 28.7659C88.9761 27.8823 88.7433 26.8745 88.7433 25.7428C88.7433 24.611 88.9761 23.6033 89.4417 22.7196C89.9227 21.8359 90.5668 21.1383 91.3737 20.6267C92.1963 20.1151 93.1274 19.8593 94.1671 19.8593C94.9276 19.8593 95.6104 20.0065 96.2156 20.3011C96.8364 20.5957 97.3408 21.0065 97.7287 21.5336C98.1167 22.0452 98.334 22.6344 98.3805 23.301V28.1846C98.334 28.8512 98.1167 29.4481 97.7287 29.9752C97.3563 30.4868 96.8597 30.8899 96.2389 31.1845C95.6182 31.479 94.9276 31.6263 94.1671 31.6263ZM94.8888 28.4171C95.6492 28.4171 96.2622 28.1691 96.7278 27.673C97.1933 27.1613 97.4261 26.518 97.4261 25.7428C97.4261 25.2157 97.3175 24.7506 97.1002 24.3475C96.8985 23.9444 96.6036 23.6343 96.2156 23.4173C95.8432 23.1847 95.4087 23.0685 94.912 23.0685C94.4154 23.0685 93.9732 23.1847 93.5852 23.4173C93.2127 23.6343 92.9101 23.9444 92.6773 24.3475C92.4601 24.7506 92.3514 25.2157 92.3514 25.7428C92.3514 26.2544 92.4601 26.7118 92.6773 27.1148C92.8946 27.5179 93.1972 27.8357 93.5852 28.0683C93.9732 28.3008 94.4077 28.4171 94.8888 28.4171ZM97.2864 31.3938V28.3474L97.8218 25.6033L97.2864 22.8592V20.0918H100.778V31.3938H97.2864Z" fill="white"/>
<path d="M103.286 31.3938V14.5106H106.847V31.3938H103.286Z" fill="white"/>
<path d="M117.48 31.6496C116.254 31.6496 115.113 31.4403 114.058 31.0217C113.018 30.5876 112.102 29.983 111.311 29.2078C110.535 28.4326 109.93 27.5334 109.495 26.5102C109.061 25.4715 108.843 24.3552 108.843 23.1615C108.843 21.9677 109.061 20.8592 109.495 19.836C109.93 18.7973 110.535 17.8981 111.311 17.1384C112.087 16.3787 112.995 15.7896 114.034 15.371C115.09 14.9369 116.23 14.7199 117.456 14.7199C118.76 14.7199 119.916 14.9292 120.925 15.3478C121.949 15.7664 122.841 16.34 123.602 17.0686L121.158 19.5337C120.723 19.0686 120.195 18.7043 119.575 18.4407C118.969 18.1771 118.263 18.0454 117.456 18.0454C116.742 18.0454 116.083 18.1694 115.478 18.4174C114.888 18.65 114.376 18.9911 113.941 19.4407C113.522 19.8903 113.189 20.4329 112.94 21.0685C112.708 21.7042 112.591 22.4018 112.591 23.1615C112.591 23.9366 112.708 24.642 112.94 25.2777C113.189 25.9133 113.522 26.4559 113.941 26.9055C114.376 27.3551 114.888 27.704 115.478 27.952C116.083 28.2001 116.742 28.3241 117.456 28.3241C118.294 28.3241 119.024 28.1923 119.644 27.9288C120.265 27.6652 120.801 27.3009 121.251 26.8358L123.718 29.3008C122.927 30.0295 122.019 30.6031 120.995 31.0217C119.986 31.4403 118.814 31.6496 117.48 31.6496Z" fill="white"/>
<path d="M125.405 31.3938V20.0918H128.966V31.3938H125.405ZM127.197 18.5337C126.639 18.5337 126.173 18.3477 125.801 17.9756C125.444 17.588 125.265 17.1229 125.265 16.5803C125.265 16.0222 125.444 15.5571 125.801 15.185C126.173 14.8129 126.639 14.6269 127.197 14.6269C127.756 14.6269 128.214 14.8129 128.571 15.185C128.928 15.5571 129.106 16.0222 129.106 16.5803C129.106 17.1229 128.928 17.588 128.571 17.9756C128.214 18.3477 127.756 18.5337 127.197 18.5337Z" fill="white"/>
<path d="M133.081 31.3938V15.4175H136.642V31.3938H133.081ZM130.52 23.115V20.0918H139.203V23.115H130.52Z" fill="white"/>
<path d="M144.264 31.4403L139.608 20.0918H143.449L146.405 29.0915H144.985L148.012 20.0918H151.853L147.011 31.4403H144.264ZM141.354 36.1611L144.753 28.8357L147.011 31.4403L145.009 36.1611H141.354Z" fill="white"/>
<path d="M157.63 31.3938L152.346 14.9757H155.977L159.841 27.6032H158.421L162.192 14.9757H165.055L168.827 27.6032H167.43L171.271 14.9757H174.879L169.595 31.3938H166.732L162.937 18.7663H164.287L160.493 31.3938H157.63Z" fill="white"/>
<path d="M179.801 31.6263C178.761 31.6263 177.83 31.3705 177.008 30.8589C176.201 30.3473 175.557 29.6496 175.076 28.7659C174.61 27.8823 174.377 26.8745 174.377 25.7428C174.377 24.611 174.61 23.6033 175.076 22.7196C175.557 21.8359 176.201 21.1383 177.008 20.6267C177.83 20.1151 178.761 19.8593 179.801 19.8593C180.562 19.8593 181.244 20.0065 181.85 20.3011C182.47 20.5957 182.975 21.0065 183.363 21.5336C183.751 22.0452 183.968 22.6344 184.015 23.301V28.1846C183.968 28.8512 183.751 29.4481 183.363 29.9752C182.99 30.4868 182.494 30.8899 181.873 31.1845C181.252 31.479 180.562 31.6263 179.801 31.6263ZM180.523 28.4171C181.283 28.4171 181.896 28.1691 182.362 27.673C182.827 27.1613 183.06 26.518 183.06 25.7428C183.06 25.2157 182.952 24.7506 182.734 24.3475C182.533 23.9444 182.238 23.6343 181.85 23.4173C181.477 23.1847 181.043 23.0685 180.546 23.0685C180.049 23.0685 179.607 23.1847 179.219 23.4173C178.847 23.6343 178.544 23.9444 178.311 24.3475C178.094 24.7506 177.985 25.2157 177.985 25.7428C177.985 26.2544 178.094 26.7118 178.311 27.1148C178.529 27.5179 178.831 27.8357 179.219 28.0683C179.607 28.3008 180.042 28.4171 180.523 28.4171ZM182.92 31.3938V28.3474L183.456 25.6033L182.92 22.8592V20.0918H186.412V31.3938H182.92Z" fill="white"/>
<path d="M188.92 31.3938V14.5106H192.481V31.3938H188.92Z" fill="white"/>
<path d="M202.229 31.3938L198.272 25.5335L202.206 20.0918H206.186L201.438 26.2079L201.554 24.7428L206.419 31.3938H202.229ZM194.99 31.3938V14.5106H198.551V31.3938H194.99Z" fill="white"/>
<path d="M211.158 31.6728C210.491 31.6728 209.831 31.5876 209.179 31.417C208.543 31.2465 207.946 31.0062 207.387 30.6961C206.844 30.3705 206.378 29.9985 205.99 29.5799L208.016 27.5334C208.388 27.9365 208.83 28.2543 209.342 28.4869C209.855 28.7039 210.413 28.8125 211.018 28.8125C211.437 28.8125 211.756 28.7504 211.973 28.6264C212.206 28.5024 212.322 28.3319 212.322 28.1148C212.322 27.8357 212.182 27.6264 211.903 27.4869C211.639 27.3319 211.298 27.2001 210.879 27.0916C210.46 26.9676 210.017 26.8358 209.552 26.6962C209.086 26.5567 208.644 26.3629 208.225 26.1149C207.806 25.8668 207.465 25.5257 207.201 25.0916C206.937 24.642 206.805 24.0762 206.805 23.394C206.805 22.6654 206.991 22.0375 207.364 21.5104C207.736 20.9677 208.264 20.5414 208.947 20.2313C209.63 19.9213 210.429 19.7662 211.344 19.7662C212.307 19.7662 213.191 19.9368 213.998 20.2778C214.821 20.6034 215.488 21.0918 216 21.7429L213.975 23.7894C213.618 23.3708 213.214 23.0762 212.764 22.9057C212.33 22.7351 211.903 22.6499 211.484 22.6499C211.081 22.6499 210.778 22.7119 210.576 22.8359C210.374 22.9444 210.274 23.1072 210.274 23.3243C210.274 23.5568 210.405 23.7429 210.669 23.8824C210.933 24.0219 211.275 24.1459 211.694 24.2545C212.113 24.363 212.555 24.4948 213.02 24.6498C213.486 24.8048 213.928 25.0141 214.347 25.2777C214.766 25.5412 215.108 25.8978 215.371 26.3474C215.635 26.7815 215.767 27.3551 215.767 28.0683C215.767 29.169 215.348 30.045 214.51 30.6961C213.688 31.3473 212.57 31.6728 211.158 31.6728Z" fill="white"/>
</svg>
