<svg width="1114" height="258" viewBox="0 0 1114 258" fill="none" xmlns="http://www.w3.org/2000/svg">
<path d="M204.872 148.002C191.684 179.588 146.146 223.721 120.407 247.475C120.063 247.789 119.517 248.308 118.85 248.948L116.283 251.386L111.341 256.09C108.694 258.609 104.57 258.64 101.882 256.161L98.517 253.052L98.1936 252.757C96.3745 251.091 94.414 249.202 93.4438 248.308C67.9566 224.748 22.6111 180.777 8.86699 149.689C-20.3696 83.5399 26.2189 6.40855 96.9809 0.383928C174.888 -6.26042 235.554 74.5588 204.872 148.002Z" fill="#FF5500"/>
<path d="M75.2498 106.469C82.3214 106.469 88.0541 97.877 88.0541 87.2779C88.0541 76.6788 82.3214 68.0865 75.2498 68.0865C68.1782 68.0865 62.4455 76.6788 62.4455 87.2779C62.4455 97.877 68.1782 106.469 75.2498 106.469Z" fill="#040606"/>
<path d="M121.036 88.8221C121.723 87.5624 122.997 86.4753 124.027 85.5304C127.948 81.9543 132.749 79.3433 137.903 78.0835C142.572 76.9456 147.443 76.9558 152.152 77.8803C156.306 78.6931 160.54 81.0094 163.107 84.4332C165.341 87.41 166.725 94.2169 162.127 95.9135C159.317 96.9498 157.822 95.9034 155.74 94.1762C153.021 91.9208 149.343 90.661 145.856 90.468C141.713 90.2445 138.347 91.7176 134.76 93.526C131.334 95.2531 127.908 97.407 123.926 96.3809C120.743 95.5579 119.561 91.8802 120.935 89.0253C120.975 88.9542 121.006 88.8729 121.046 88.8018L121.036 88.8221Z" fill="#040606"/>
<path d="M155.575 125.691C147.824 123.192 145.934 131.909 142.266 136.47C133.656 147.189 119.78 151.547 106.491 151.954C93.2013 151.547 79.3359 147.189 70.7156 136.47C67.0471 131.909 65.1573 123.192 57.406 125.691C56.3449 126.514 53.495 127.733 54.7178 136.409C55.8598 140.748 67.1279 167.874 106.481 167.376C145.833 167.863 157.101 140.748 158.243 136.409C159.466 127.733 156.616 126.514 155.555 125.691H155.575Z" fill="#040606"/>
<path d="M269.151 161.996V77.2759H287.991V161.996H269.151ZM283.671 161.996V145.436H325.551V161.996H283.671Z" fill="#040606"/>
<path d="M361.88 163.316C355.88 163.316 350.44 161.996 345.56 159.356C340.76 156.636 336.96 152.956 334.16 148.316C331.36 143.676 329.96 138.476 329.96 132.716C329.96 126.956 331.36 121.796 334.16 117.236C336.96 112.676 340.76 109.076 345.56 106.436C350.36 103.716 355.8 102.356 361.88 102.356C367.96 102.356 373.4 103.676 378.2 106.316C383 108.956 386.8 112.596 389.6 117.236C392.4 121.796 393.8 126.956 393.8 132.716C393.8 138.476 392.4 143.676 389.6 148.316C386.8 152.956 383 156.636 378.2 159.356C373.4 161.996 367.96 163.316 361.88 163.316ZM361.88 146.636C364.52 146.636 366.84 146.076 368.84 144.956C370.84 143.756 372.36 142.116 373.4 140.036C374.52 137.876 375.08 135.436 375.08 132.716C375.08 129.996 374.52 127.636 373.4 125.636C372.28 123.556 370.72 121.956 368.72 120.836C366.8 119.636 364.52 119.036 361.88 119.036C359.32 119.036 357.04 119.636 355.04 120.836C353.04 121.956 351.48 123.556 350.36 125.636C349.24 127.716 348.68 130.116 348.68 132.836C348.68 135.476 349.24 137.876 350.36 140.036C351.48 142.116 353.04 143.756 355.04 144.956C357.04 146.076 359.32 146.636 361.88 146.636Z" fill="#040606"/>
<path d="M431.14 163.316C425.14 163.316 419.7 161.996 414.82 159.356C409.94 156.716 406.1 153.076 403.3 148.436C400.5 143.796 399.1 138.596 399.1 132.836C399.1 126.996 400.5 121.796 403.3 117.236C406.18 112.596 410.06 108.956 414.94 106.316C419.82 103.676 425.3 102.356 431.38 102.356C435.94 102.356 440.1 103.156 443.86 104.756C447.7 106.276 451.1 108.596 454.06 111.716L442.3 123.476C440.94 121.956 439.34 120.836 437.5 120.116C435.74 119.396 433.7 119.036 431.38 119.036C428.74 119.036 426.38 119.636 424.3 120.836C422.3 121.956 420.7 123.556 419.5 125.636C418.38 127.636 417.82 129.996 417.82 132.716C417.82 135.436 418.38 137.836 419.5 139.916C420.7 141.996 422.34 143.636 424.42 144.836C426.5 146.036 428.82 146.636 431.38 146.636C433.78 146.636 435.9 146.236 437.74 145.436C439.66 144.556 441.3 143.356 442.66 141.836L454.3 153.596C451.26 156.796 447.82 159.236 443.98 160.916C440.14 162.516 435.86 163.316 431.14 163.316Z" fill="#040606"/>
<path d="M485.425 163.196C480.065 163.196 475.265 161.876 471.025 159.236C466.865 156.596 463.545 152.996 461.065 148.436C458.665 143.876 457.465 138.676 457.465 132.836C457.465 126.996 458.665 121.796 461.065 117.236C463.545 112.676 466.865 109.076 471.025 106.436C475.265 103.796 480.065 102.476 485.425 102.476C489.345 102.476 492.865 103.236 495.985 104.756C499.185 106.276 501.785 108.396 503.785 111.116C505.785 113.756 506.905 116.796 507.145 120.236V145.436C506.905 148.876 505.785 151.956 503.785 154.676C501.865 157.316 499.305 159.396 496.105 160.916C492.905 162.436 489.345 163.196 485.425 163.196ZM489.145 146.636C493.065 146.636 496.225 145.356 498.625 142.796C501.025 140.156 502.225 136.836 502.225 132.836C502.225 130.116 501.665 127.716 500.545 125.636C499.505 123.556 497.985 121.956 495.985 120.836C494.065 119.636 491.825 119.036 489.265 119.036C486.705 119.036 484.425 119.636 482.425 120.836C480.505 121.956 478.945 123.556 477.745 125.636C476.625 127.716 476.065 130.116 476.065 132.836C476.065 135.476 476.625 137.836 477.745 139.916C478.865 141.996 480.425 143.636 482.425 144.836C484.425 146.036 486.665 146.636 489.145 146.636ZM501.505 161.996V146.276L504.265 132.116L501.505 117.956V103.676H519.505V161.996H501.505Z" fill="#040606"/>
<path d="M532.432 161.996V74.8759H550.792V161.996H532.432Z" fill="#040606"/>
<path d="M605.601 163.316C599.281 163.316 593.401 162.236 587.961 160.076C582.601 157.836 577.881 154.716 573.801 150.716C569.801 146.716 566.681 142.076 564.441 136.796C562.201 131.436 561.081 125.676 561.081 119.516C561.081 113.356 562.201 107.636 564.441 102.356C566.681 96.9959 569.801 92.3559 573.801 88.4359C577.801 84.5159 582.481 81.4759 587.841 79.3159C593.281 77.0759 599.161 75.9559 605.481 75.9559C612.201 75.9559 618.161 77.0359 623.361 79.1959C628.641 81.3559 633.241 84.3159 637.161 88.0759L624.561 100.796C622.321 98.3959 619.601 96.5159 616.401 95.1559C613.281 93.7959 609.641 93.1159 605.481 93.1159C601.801 93.1159 598.401 93.7559 595.281 95.0359C592.241 96.2359 589.601 97.9959 587.361 100.316C585.201 102.636 583.481 105.436 582.201 108.716C581.001 111.996 580.401 115.596 580.401 119.516C580.401 123.516 581.001 127.156 582.201 130.436C583.481 133.716 585.201 136.516 587.361 138.836C589.601 141.156 592.241 142.956 595.281 144.236C598.401 145.516 601.801 146.156 605.481 146.156C609.801 146.156 613.561 145.476 616.761 144.116C619.961 142.756 622.721 140.876 625.041 138.476L637.761 151.196C633.681 154.956 629.001 157.916 623.721 160.076C618.521 162.236 612.481 163.316 605.601 163.316Z" fill="#040606"/>
<path d="M646.456 161.996V103.676H664.816V161.996H646.456ZM655.696 95.6359C652.816 95.6359 650.416 94.6759 648.496 92.7559C646.656 90.7559 645.736 88.3559 645.736 85.5559C645.736 82.6759 646.656 80.2759 648.496 78.3559C650.416 76.4359 652.816 75.4759 655.696 75.4759C658.576 75.4759 660.936 76.4359 662.776 78.3559C664.616 80.2759 665.536 82.6759 665.536 85.5559C665.536 88.3559 664.616 90.7559 662.776 92.7559C660.936 94.6759 658.576 95.6359 655.696 95.6359Z" fill="#040606"/>
<path d="M686.025 161.996V79.5559H704.385V161.996H686.025ZM672.825 119.276V103.676H717.585V119.276H672.825Z" fill="#040606"/>
<path d="M743.675 162.236L719.675 103.676H739.475L754.715 150.116H747.395L762.995 103.676H782.795L757.835 162.236H743.675ZM728.675 186.596L746.195 148.796L757.835 162.236L747.515 186.596H728.675Z" fill="#040606"/>
<path d="M812.576 161.996L785.336 77.2759H804.056L823.976 142.436H816.656L836.096 77.2759H850.856L870.296 142.436H863.096L882.896 77.2759H901.496L874.256 161.996H859.496L839.936 96.8359H846.896L827.336 161.996H812.576Z" fill="#040606"/>
<path d="M926.87 163.196C921.51 163.196 916.711 161.876 912.471 159.236C908.311 156.596 904.99 152.996 902.51 148.436C900.11 143.876 898.911 138.676 898.911 132.836C898.911 126.996 900.11 121.796 902.51 117.236C904.99 112.676 908.311 109.076 912.471 106.436C916.711 103.796 921.51 102.476 926.87 102.476C930.79 102.476 934.31 103.236 937.43 104.756C940.63 106.276 943.231 108.396 945.231 111.116C947.231 113.756 948.351 116.796 948.591 120.236V145.436C948.351 148.876 947.231 151.956 945.231 154.676C943.311 157.316 940.751 159.396 937.551 160.916C934.351 162.436 930.79 163.196 926.87 163.196ZM930.591 146.636C934.51 146.636 937.67 145.356 940.07 142.796C942.471 140.156 943.671 136.836 943.671 132.836C943.671 130.116 943.11 127.716 941.99 125.636C940.951 123.556 939.43 121.956 937.43 120.836C935.51 119.636 933.271 119.036 930.711 119.036C928.151 119.036 925.87 119.636 923.87 120.836C921.951 121.956 920.391 123.556 919.19 125.636C918.07 127.716 917.51 130.116 917.51 132.836C917.51 135.476 918.07 137.836 919.19 139.916C920.31 141.996 921.87 143.636 923.87 144.836C925.87 146.036 928.111 146.636 930.591 146.636ZM942.951 161.996V146.276L945.711 132.116L942.951 117.956V103.676H960.951V161.996H942.951Z" fill="#040606"/>
<path d="M973.878 161.996V74.8759H992.238V161.996H973.878Z" fill="#040606"/>
<path d="M1042.49 161.996L1022.09 131.756L1042.37 103.676H1062.89L1038.41 135.236L1039.01 127.676L1064.09 161.996H1042.49ZM1005.17 161.996V74.8759H1023.53V161.996H1005.17Z" fill="#040606"/>
<path d="M1088.52 163.436C1085.08 163.436 1081.68 162.996 1078.32 162.116C1075.04 161.236 1071.96 159.996 1069.08 158.396C1066.28 156.716 1063.88 154.796 1061.88 152.636L1072.32 142.076C1074.24 144.156 1076.52 145.796 1079.16 146.996C1081.8 148.116 1084.68 148.676 1087.8 148.676C1089.96 148.676 1091.6 148.356 1092.72 147.716C1093.92 147.076 1094.52 146.196 1094.52 145.076C1094.52 143.636 1093.8 142.556 1092.36 141.836C1091 141.036 1089.24 140.356 1087.08 139.796C1084.92 139.156 1082.64 138.476 1080.24 137.756C1077.84 137.036 1075.56 136.036 1073.4 134.756C1071.24 133.476 1069.48 131.716 1068.12 129.476C1066.76 127.156 1066.08 124.236 1066.08 120.716C1066.08 116.956 1067.04 113.716 1068.96 110.996C1070.88 108.196 1073.6 105.996 1077.12 104.396C1080.64 102.796 1084.76 101.996 1089.48 101.996C1094.44 101.996 1099 102.876 1103.16 104.636C1107.4 106.316 1110.84 108.836 1113.48 112.196L1103.04 122.756C1101.2 120.596 1099.12 119.076 1096.8 118.196C1094.56 117.316 1092.36 116.876 1090.2 116.876C1088.12 116.876 1086.56 117.196 1085.52 117.836C1084.48 118.396 1083.96 119.236 1083.96 120.356C1083.96 121.556 1084.64 122.516 1086 123.236C1087.36 123.956 1089.12 124.596 1091.28 125.156C1093.44 125.716 1095.72 126.396 1098.12 127.196C1100.52 127.996 1102.8 129.076 1104.96 130.436C1107.12 131.796 1108.88 133.636 1110.24 135.956C1111.6 138.196 1112.28 141.156 1112.28 144.836C1112.28 150.516 1110.12 155.036 1105.8 158.396C1101.56 161.756 1095.8 163.436 1088.52 163.436Z" fill="#040606"/>
</svg>
