<svg width="505" height="512" viewBox="0 0 505 512" fill="none" xmlns="http://www.w3.org/2000/svg">
<path d="M139.964 9.77344C142.925 12.3896 145.73 15.064 147.649 18.5555C150.048 18.2114 152.02 17.2893 154.167 16.2227C173.815 6.81354 199.489 3.53067 220.675 8.96366C221.791 9.23524 222.836 9.3446 223.982 9.42181C240.057 10.6422 255.826 14.0759 270.049 21.8487C270.792 22.2169 271.536 22.5828 272.281 22.9465C284.833 29.1838 295.289 39.7555 300.235 52.9461C301.725 57.5644 301.941 62.0736 302.021 66.891C302.033 67.306 302.045 67.7209 302.057 68.1485C302.074 71.1798 301.438 73.4036 300.237 76.1876C300.056 76.1876 299.875 76.1876 299.688 76.1876C299.628 75.5381 299.568 74.8886 299.506 74.2194C298.311 61.984 293.877 51.9958 284.32 43.8038C283.151 43.1445 283.151 43.1445 282.124 42.7061C282.473 43.1073 282.473 43.1073 282.83 43.5165C286.825 48.3456 289.896 54.1766 291.455 60.2702C291.567 60.6912 291.679 61.1121 291.794 61.5459C294.125 71.9692 292.089 82.6998 288.711 92.6539C289.07 92.6553 289.43 92.6568 289.8 92.6582C296.938 92.9607 301.925 96.4756 306.824 101.436C307.133 101.733 307.442 102.03 307.761 102.336C313.368 108.195 316.353 117.59 316.446 125.527C316.531 125.909 316.616 126.291 316.704 126.684C317.656 127.251 317.656 127.251 318.899 127.782C320.035 128.781 321.135 129.79 322.227 130.835C324.9 133.349 327.636 135.728 330.499 138.026C332.301 139.494 334.055 141.011 335.812 142.533C339.29 145.535 342.862 148.396 346.499 151.203C347.436 151.929 348.367 152.661 349.298 153.395C352.509 155.915 355.776 158.24 359.244 160.4C367.835 165.818 370.476 171.87 372.69 181.572C372.837 182.197 372.985 182.822 373.138 183.465C373.946 187.014 374.477 190.433 374.718 194.061C375.031 197.403 375.691 200.69 376.311 203.987C376.523 205.128 376.727 206.271 376.928 207.414C377.317 209.601 377.741 211.779 378.178 213.956C378.249 214.323 378.321 214.69 378.394 215.069C379.443 220.359 381.08 224.626 384.003 229.222C384.912 230.654 385.8 232.098 386.688 233.542C390.25 239.31 393.884 245.022 397.684 250.635C398.67 252.1 399.645 253.572 400.62 255.044C401.003 255.622 401.387 256.2 401.781 256.795C402.535 257.932 403.288 259.069 404.04 260.206C406.168 263.409 408.365 266.547 410.64 269.647C412.047 271.568 413.415 273.515 414.782 275.464C417.977 280.006 421.223 284.509 424.481 289.006C425.675 290.655 426.867 292.305 428.059 293.956C428.654 294.78 429.249 295.604 429.845 296.428C431.316 298.463 432.783 300.5 434.243 302.542C437.866 307.598 441.582 312.572 445.363 317.512C447.902 320.83 450.394 324.176 452.826 327.573C453.945 329.13 455.066 330.684 456.188 332.239C456.492 332.66 456.795 333.082 457.108 333.516C459 336.137 460.912 338.741 462.84 341.335C466.672 346.496 470.34 351.749 473.94 357.073C475.009 358.646 476.092 360.209 477.175 361.772C480.134 366.047 483.001 370.369 485.759 374.777C485.952 375.084 486.146 375.391 486.345 375.707C496.594 392.047 507.757 411.513 503.377 431.416C501.377 438.355 497.558 444.499 491.453 448.498C480.359 454.598 466.547 455.554 454.473 452.169C429.556 444.896 407.658 431.338 386.96 415.943C385.687 419.942 384.504 423.904 383.667 428.018C381.379 427.707 379.927 426.958 378.024 425.668C377.474 425.298 376.924 424.929 376.358 424.548C375.781 424.153 375.205 423.759 374.611 423.353C374.023 422.955 373.435 422.558 372.829 422.149C371.132 421 369.44 419.845 367.75 418.687C367.317 418.391 366.884 418.094 366.437 417.789C364.489 416.452 362.547 415.106 360.614 413.747C360.654 413.452 360.693 413.156 360.734 412.851C362.426 397.86 360.07 383.55 356.772 368.979C356.642 368.399 356.512 367.819 356.378 367.221C355.573 363.741 354.576 360.383 353.415 357.006C352.877 355.41 352.449 353.811 352.072 352.17C350.963 347.59 349.43 343.37 347.441 339.1C346.898 339.1 346.354 339.1 345.794 339.1C346.103 342.291 346.762 345.092 347.784 348.122C354.962 370.239 361.412 393.785 356.772 417.041C356.698 417.418 356.625 417.796 356.549 418.185C355.447 423.658 353.535 428.644 351.283 433.743C349.373 438.082 347.69 442.327 346.618 446.954C346.504 447.441 346.389 447.928 346.272 448.43C344.965 454.214 344.083 460.063 343.273 465.934C343.084 467.293 342.88 468.647 342.671 470.003C340.863 482.54 341.391 495.598 343.946 507.968C344.148 509.252 344.148 509.252 344.148 511.996C270.79 511.996 197.432 511.996 121.851 511.996C123.3 509.461 124.749 506.925 126.242 504.312C133.677 486.965 122.445 463.614 116.761 446.832C115.208 442.238 113.755 437.644 112.448 432.973C111.875 430.976 111.214 429.041 110.496 427.092C110.268 426.467 110.039 425.842 109.804 425.199C109.614 424.68 109.423 424.161 109.227 423.627C108.629 421.832 108.705 420.895 108.908 419.032C109.005 418.115 109.005 418.115 109.104 417.179C109.179 416.511 109.253 415.842 109.33 415.154C109.405 414.458 109.479 413.762 109.556 413.045C109.943 409.441 110.349 405.84 110.758 402.238C110.906 400.938 111.053 399.637 111.2 398.336C111.388 396.671 111.58 395.007 111.775 393.344C112.321 388.595 112.71 383.86 112.955 379.086C113.122 375.999 113.366 372.919 113.618 369.837C112.55 369.513 112.55 369.513 111.423 369.288C110.514 370.197 110.641 371.337 110.499 372.588C110.431 373.175 110.363 373.763 110.294 374.368C110.225 374.99 110.156 375.612 110.085 376.252C110.018 376.829 109.951 377.406 109.882 378.001C109.45 381.815 109.084 385.632 108.745 389.455C108.277 394.709 107.757 399.956 107.22 405.203C107.159 405.801 107.159 405.801 107.097 406.412C106.716 410.136 106.334 413.861 105.951 417.586C105.699 420.045 105.447 422.504 105.196 424.963C105.156 425.358 105.115 425.753 105.074 426.159C104.497 431.804 103.966 437.451 103.53 443.109C103.247 446.622 103.247 446.622 102.641 447.229C101.521 447.284 100.4 447.3 99.2787 447.297C98.6659 447.299 98.0532 447.3 97.4219 447.302C95.4686 447.227 93.5919 446.989 91.663 446.68C91.5696 447.191 91.4762 447.703 91.3799 448.23C91.1804 449.28 91.1804 449.28 90.9769 450.351C90.8495 451.032 90.7221 451.713 90.5909 452.415C90.1906 454.305 89.6496 456.117 89.0601 457.955C87.2982 463.568 85.9825 469.301 84.5961 475.016C84.4504 475.614 84.3047 476.211 84.1546 476.827C81.3072 488.512 78.6533 500.201 76.2943 511.996C51.1172 511.996 25.9401 511.996 0 511.996C0.836256 506.561 1.76648 501.19 2.84731 495.804C2.93026 495.389 3.01321 494.974 3.09867 494.546C4.65158 486.8 6.44334 479.128 8.3538 471.461C8.9715 468.968 9.56379 466.469 10.1543 463.97C13.147 451.374 16.1569 438.809 19.7597 426.371C19.2821 426.225 18.8045 426.079 18.3124 425.928C16.5107 425.289 14.9438 424.521 13.276 423.593C12.7517 423.303 12.2275 423.014 11.6873 422.716C10.4287 421.98 10.4287 421.98 9.87984 421.432C10.1544 418.629 10.8117 415.994 11.6251 413.308C11.8059 412.703 11.8059 412.703 11.9903 412.086C13.3941 407.445 14.9537 402.859 16.535 398.276C16.7666 397.602 16.7666 397.602 17.0028 396.915C42.396 323.075 42.396 323.075 62.5723 299.581C63.0273 299.02 63.4822 298.459 63.951 297.88C80.2854 277.826 105.603 269.149 129.536 261.708C130.027 261.555 130.518 261.401 131.023 261.242C137.405 259.255 143.881 257.711 150.393 256.219C150.54 256.587 150.687 256.954 150.839 257.332C155.927 269.801 162.027 280.33 171.251 290.25C171.705 290.749 171.705 290.749 172.168 291.258C185.74 305.568 206.311 312.849 225.688 313.371C239.97 313.633 253.897 310.78 265.658 302.325C266.186 301.948 266.186 301.948 266.726 301.564C273.34 296.388 277.201 287.998 278.282 279.821C278.837 272.69 278.205 266.333 276.087 259.513C275.716 258.233 275.353 256.952 274.989 255.671C278.716 256.03 282.336 256.624 286.001 257.386C286.568 257.504 287.135 257.621 287.719 257.743C293.497 258.984 299.132 260.64 304.781 262.363C306.262 262.802 307.749 263.206 309.242 263.601C327.55 268.547 342.139 277.394 356.772 289.152C357.127 289.437 357.483 289.723 357.849 290.017C362.001 293.357 366.116 296.735 370.171 300.192C372.031 301.775 373.913 303.327 375.811 304.864C378.327 306.908 380.737 309.048 383.12 311.244C384.153 312.231 384.153 312.231 385.314 312.754C385.146 312.377 384.978 312.001 384.806 311.613C382.885 307.221 381.116 302.779 379.379 298.311C368.199 269.151 368.199 269.151 354.028 241.4C353.833 241.066 353.638 240.732 353.438 240.388C350.826 235.943 348.142 233.554 343.77 230.834C331.005 222.692 325.064 211.432 321.369 197.009C319.204 188.205 319.204 188.205 315.606 179.925C314.211 181.312 312.828 182.705 311.466 184.124C310.747 184.864 310.747 184.864 310.014 185.62C309.757 185.886 309.499 186.152 309.234 186.426C307.529 188.139 305.816 189.38 303.736 190.594C302.061 191.69 301.44 192.129 300.949 194.093C300.886 195.236 300.852 196.381 300.846 197.526C300.725 200.788 299.199 203.108 296.875 205.311C292.576 208.727 286.972 210.179 281.575 209.565C277.665 208.335 275.367 206.506 273.342 202.978C272.295 199.837 272.142 196.006 273.271 192.867C275.447 189.186 278.838 186.322 282.785 184.696C284.793 184.2 286.756 184.098 288.814 184.076C289.186 184.071 289.557 184.065 289.94 184.059C292.506 184.104 294.167 184.752 296.395 185.963C297.756 186.54 297.756 186.54 299.14 186.512C306.874 181.954 312.259 174.227 314.508 165.655C314.713 164.561 314.894 163.462 315.057 162.361C315.151 161.731 315.245 161.101 315.342 160.451C315.729 156.649 315.729 156.649 314.408 153.178C313.036 151.69 311.519 150.453 309.911 149.229C309.436 148.853 308.96 148.478 308.471 148.091C308.471 147.728 308.471 147.366 308.471 146.993C307.962 147.421 307.962 147.421 307.444 147.857C304.455 150.318 301.501 152.392 298.042 154.128C297.715 154.315 297.388 154.502 297.051 154.694C295.368 155.437 293.667 155.751 291.867 156.118C291.174 156.261 290.48 156.404 289.766 156.551C289.237 156.657 288.707 156.763 288.162 156.873C288.029 157.41 287.896 157.947 287.759 158.5C286.738 162.534 285.645 166.315 283.771 170.046C283.444 170.725 283.117 171.405 282.791 172.085C279.702 178.462 276.202 184.314 271.696 189.805C271.404 190.171 271.113 190.537 270.812 190.914C265.241 197.639 258.116 202.312 249.74 204.625C249.758 212.45 250.675 220.062 251.867 227.781C251.938 228.246 252.009 228.71 252.082 229.189C252.861 234.266 253.728 239.221 255.229 244.144C256.121 247.437 256.121 247.437 256.52 248.913C256.795 249.892 257.103 250.863 257.425 251.828C257.777 251.914 258.13 251.999 258.493 252.087C258.865 252.183 259.237 252.279 259.62 252.377C260.402 253.84 261.022 255.196 261.61 256.734C261.778 257.162 261.945 257.589 262.118 258.03C264.833 265.122 266.087 273.58 263.462 280.919C259.513 289.202 253.75 293.677 245.199 296.781C228.426 301.739 211.031 299.008 195.839 290.794C189.183 287.119 183.121 282.51 178.386 276.528C177.964 276.016 177.543 275.505 177.108 274.978C172.463 269.242 165.213 259.947 165.213 252.377C165.881 252.106 166.549 251.834 167.237 251.554C171.224 249.504 172.336 246.103 173.755 242.017C178.111 227.704 178.415 212.1 176.431 197.352C176.196 195.344 176.148 193.469 176.19 191.452C175.5 191.497 174.809 191.542 174.098 191.589C169.478 191.609 163.351 190.795 159.175 188.708C159.4 189.119 159.625 189.531 159.857 189.955C163.584 197.035 164.938 204.808 163.086 212.712C160.612 219.645 156.218 224.28 149.758 227.768C148.242 228.455 147.129 228.776 145.453 228.776C145.453 228.413 145.453 228.051 145.453 227.678C146.279 227.043 146.279 227.043 147.409 226.306C151.314 223.468 153.731 219.753 154.784 215.054C155.52 206.335 153.743 198.986 148.043 192.144C146.837 190.791 145.613 189.464 144.355 188.159C144.109 187.869 143.862 187.58 143.607 187.281C142.48 186.316 141.847 186.279 140.378 186.208C139.922 186.178 139.465 186.148 138.995 186.117C138.511 186.089 138.027 186.061 137.529 186.032C128.765 185.314 122.228 181.819 116.191 175.329C111.48 169.691 108.076 163.215 105.968 156.187C105.086 153.398 103.848 151.52 101.978 149.296C96.1062 142.106 92.1279 131.93 90.5652 122.842C90.464 122.345 90.3628 121.847 90.2586 121.335C88.6047 112.016 88.8472 101.95 90.5652 92.6539C90.0144 92.5754 90.0144 92.5754 89.4524 92.4953C82.6367 90.8652 77.2018 86.6157 72.4522 81.6764C72.0878 81.3163 71.7234 80.9561 71.348 80.5851C62.9568 71.7791 61.0615 60.5672 61.2687 48.8724C61.5616 41.948 63.9286 36.1954 68.0611 30.6308C68.3944 30.1574 68.7276 29.6841 69.071 29.1964C71.7182 25.629 74.7925 23.1842 78.4898 20.751C74.366 22.7773 70.9635 25.42 67.5122 28.4353C67.1549 28.7395 66.7976 29.0438 66.4295 29.3572C61.1626 34.1801 57.5991 41.1876 56.9163 48.2871C56.8016 53.3144 57.7561 57.4912 59.9351 62.0004C60.3768 63.0146 60.3768 63.0146 60.3768 64.1123C59.3669 63.9858 59.3669 63.9858 58.1813 63.5634C54.5269 58.6254 53.0952 51.4685 53.7902 45.4505C55.6378 35.3111 61.1477 27.3871 69.2618 21.1626C76.8259 16.048 84.4516 12.995 93.3096 10.8712C93.6935 10.7736 94.0775 10.6759 94.473 10.5753C103.817 8.23171 113.653 8.5043 122.949 10.8712C123.863 11.0596 124.777 11.2447 125.694 11.4201C114.918 4.12697 104.793 3.18067 92.2118 5.38242C92.393 4.83903 92.5741 4.29564 92.7607 3.73579C94.0619 3.16806 95.2888 2.71464 96.6372 2.29498C96.9906 2.17612 97.344 2.05725 97.7081 1.93478C111.325 -2.46394 128.892 0.842487 139.964 9.77344Z" fill="#FD5D02"/>
<path d="M139.965 9.77344C142.925 12.3896 145.73 15.064 147.649 18.5555C150.048 18.2114 152.02 17.2893 154.167 16.2228C173.816 6.81354 199.489 3.53067 220.675 8.96366C221.792 9.23524 222.836 9.3446 223.982 9.42182C240.057 10.6422 255.826 14.0759 270.049 21.8487C270.792 22.2169 271.536 22.5828 272.281 22.9465C284.833 29.1838 295.289 39.7555 300.236 52.9461C301.725 57.5644 301.942 62.0737 302.022 66.891C302.033 67.306 302.045 67.721 302.057 68.1485C302.075 71.1798 301.438 73.4036 300.238 76.1876C300.057 76.1876 299.875 76.1876 299.689 76.1876C299.599 75.2133 299.599 75.2133 299.507 74.2194C298.311 61.984 293.877 51.9958 284.32 43.8039C283.152 43.1445 283.152 43.1445 282.125 42.7061C282.357 42.9735 282.59 43.241 282.83 43.5165C286.825 48.3456 289.896 54.1766 291.456 60.2702C291.623 60.9017 291.623 60.9017 291.794 61.5459C294.125 71.9692 292.089 82.6998 288.711 92.6539C289.071 92.6554 289.43 92.6568 289.8 92.6582C296.938 92.9607 301.925 96.4756 306.824 101.436C307.133 101.733 307.443 102.03 307.761 102.336C313.368 108.195 316.353 117.59 316.447 125.527C316.532 125.909 316.617 126.291 316.704 126.684C317.656 127.251 317.656 127.251 318.9 127.782C320.036 128.781 321.135 129.79 322.227 130.835C324.9 133.349 327.636 135.728 330.499 138.026C332.301 139.494 334.056 141.011 335.812 142.533C339.29 145.535 342.863 148.396 346.5 151.203C347.436 151.929 348.368 152.661 349.298 153.395C352.509 155.915 355.776 158.24 359.244 160.4C367.835 165.818 370.477 171.87 372.69 181.572C372.838 182.197 372.986 182.822 373.138 183.465C373.946 187.014 374.477 190.434 374.718 194.061C375.032 197.403 375.691 200.69 376.311 203.987C376.523 205.128 376.727 206.271 376.929 207.414C377.317 209.601 377.741 211.779 378.179 213.956C378.25 214.323 378.321 214.69 378.394 215.069C379.443 220.359 381.08 224.626 384.004 229.222C384.912 230.654 385.8 232.098 386.688 233.542C390.25 239.31 393.884 245.022 397.684 250.635C398.67 252.1 399.645 253.572 400.62 255.045C401.004 255.622 401.387 256.2 401.782 256.795C402.535 257.932 403.288 259.069 404.04 260.206C406.169 263.409 408.365 266.547 410.641 269.647C412.047 271.568 413.415 273.515 414.782 275.464C417.978 280.006 421.223 284.509 424.482 289.006C425.676 290.655 426.867 292.305 428.059 293.956C428.654 294.78 429.25 295.604 429.845 296.428C431.316 298.463 432.784 300.5 434.244 302.542C437.866 307.598 441.582 312.572 445.363 317.512C447.902 320.83 450.394 324.176 452.826 327.574C453.946 329.13 455.067 330.684 456.188 332.239C456.492 332.66 456.796 333.082 457.108 333.516C459 336.137 460.913 338.741 462.84 341.336C466.672 346.496 470.34 351.749 473.941 357.073C475.009 358.646 476.092 360.209 477.175 361.772C480.134 366.047 483.002 370.37 485.759 374.777C485.952 375.084 486.146 375.391 486.345 375.707C496.594 392.047 507.757 411.513 503.377 431.416C501.377 438.355 497.558 444.499 491.454 448.498C480.36 454.598 466.547 455.554 454.473 452.169C429.443 444.863 406.951 431.26 386.412 415.394C386.726 412.134 387.408 409.235 388.436 406.132C388.583 405.679 388.73 405.226 388.882 404.759C389.188 403.82 389.496 402.882 389.805 401.944C390.224 400.667 390.629 399.387 391.03 398.104C394.409 387.436 398.848 376.98 405.074 367.642C405.47 364.552 404.365 362.104 403.23 359.297C403.04 358.815 402.85 358.333 402.655 357.837C402.048 356.3 401.434 354.767 400.82 353.234C400.415 352.211 400.01 351.188 399.606 350.165C398.317 346.907 397.017 343.652 395.712 340.4C394.329 336.952 392.997 333.488 391.695 330.009C391.373 329.153 391.373 329.153 391.045 328.28C389.596 324.406 388.192 320.519 386.879 316.597C386.336 315.008 385.969 313.958 384.765 312.754C384.379 311.627 383.998 310.499 383.636 309.364C382.563 306.148 381.277 303.007 380.031 299.855C379.879 299.47 379.727 299.085 379.571 298.688C368.265 269.352 368.265 269.352 354.028 241.4C353.833 241.066 353.639 240.732 353.438 240.388C350.826 235.943 348.143 233.554 343.771 230.834C331.006 222.692 325.064 211.432 321.37 197.009C319.204 188.205 319.204 188.205 315.606 179.925C314.212 181.312 312.828 182.705 311.466 184.124C310.748 184.864 310.748 184.864 310.015 185.62C309.757 185.886 309.5 186.152 309.234 186.426C307.53 188.139 305.816 189.38 303.737 190.594C302.061 191.69 301.441 192.129 300.949 194.093C300.887 195.236 300.852 196.381 300.847 197.526C300.725 200.788 299.2 203.108 296.876 205.311C292.576 208.727 286.972 210.179 281.576 209.565C277.666 208.335 275.368 206.506 273.343 202.978C272.295 199.837 272.143 196.006 273.272 192.867C275.448 189.186 278.839 186.322 282.785 184.696C284.793 184.2 286.756 184.098 288.814 184.076C289.186 184.071 289.558 184.065 289.941 184.059C292.507 184.104 294.167 184.752 296.395 185.963C297.757 186.54 297.757 186.54 299.14 186.512C306.874 181.954 312.259 174.227 314.509 165.655C314.713 164.561 314.894 163.462 315.057 162.361C315.152 161.731 315.246 161.101 315.343 160.451C315.729 156.649 315.729 156.649 314.409 153.178C313.036 151.69 311.519 150.453 309.912 149.229C309.436 148.853 308.961 148.478 308.471 148.091C308.471 147.728 308.471 147.366 308.471 146.993C307.962 147.421 307.962 147.421 307.444 147.857C304.455 150.318 301.502 152.392 298.042 154.128C297.715 154.315 297.388 154.502 297.052 154.694C295.368 155.437 293.668 155.751 291.867 156.118C291.174 156.261 290.48 156.404 289.766 156.551C289.237 156.657 288.708 156.763 288.162 156.873C288.029 157.41 287.896 157.947 287.759 158.5C286.738 162.534 285.646 166.315 283.771 170.046C283.444 170.725 283.118 171.405 282.791 172.085C279.702 178.462 276.203 184.314 271.696 189.805C271.404 190.171 271.113 190.537 270.813 190.914C265.242 197.639 258.116 202.312 249.741 204.625C249.758 212.45 250.675 220.062 251.868 227.781C251.938 228.246 252.009 228.71 252.082 229.189C252.861 234.266 253.729 239.221 255.229 244.144C256.121 247.437 256.121 247.437 256.52 248.913C256.795 249.892 257.103 250.863 257.425 251.828C257.778 251.914 258.13 251.999 258.494 252.087C258.865 252.183 259.237 252.279 259.621 252.377C260.402 253.84 261.022 255.196 261.61 256.734C261.778 257.162 261.946 257.589 262.118 258.03C264.834 265.122 266.087 273.58 263.463 280.919C259.513 289.202 253.75 293.677 245.2 296.781C228.426 301.739 211.031 299.008 195.839 290.794C189.183 287.119 183.121 282.51 178.386 276.528C177.965 276.016 177.543 275.505 177.108 274.978C172.463 269.242 165.213 259.947 165.213 252.377C165.881 252.106 166.549 251.834 167.237 251.554C171.224 249.504 172.336 246.103 173.755 242.017C178.111 227.704 178.415 212.1 176.431 197.352C176.197 195.344 176.149 193.469 176.191 191.452C175.5 191.497 174.81 191.542 174.098 191.589C169.478 191.609 163.351 190.795 159.175 188.708C159.4 189.119 159.625 189.531 159.857 189.955C163.584 197.035 164.938 204.808 163.086 212.712C160.612 219.645 156.219 224.281 149.759 227.768C148.243 228.455 147.13 228.776 145.453 228.776C145.453 228.413 145.453 228.051 145.453 227.678C146.279 227.043 146.279 227.043 147.409 226.306C151.315 223.468 153.731 219.753 154.784 215.054C155.52 206.335 153.743 198.986 148.044 192.144C146.837 190.791 145.613 189.464 144.356 188.159C144.109 187.869 143.862 187.58 143.608 187.281C142.48 186.316 141.848 186.279 140.378 186.208C139.922 186.178 139.466 186.148 138.996 186.117C138.512 186.089 138.028 186.061 137.529 186.032C128.765 185.314 122.228 181.819 116.191 175.329C111.481 169.691 108.076 163.215 105.968 156.187C105.086 153.398 103.848 151.52 101.978 149.296C96.1064 142.106 92.1282 131.93 90.5655 122.842C90.4643 122.345 90.3631 121.847 90.2589 121.335C88.605 112.016 88.8475 101.95 90.5655 92.6539C90.1983 92.6016 89.8311 92.5492 89.4527 92.4953C82.637 90.8652 77.2021 86.6157 72.4524 81.6764C71.9059 81.1362 71.9059 81.1362 71.3483 80.5851C62.9571 71.7791 61.0617 60.5672 61.269 48.8724C61.5619 41.948 63.9289 36.1954 68.0614 30.6308C68.5613 29.9208 68.5613 29.9208 69.0713 29.1964C71.7185 25.629 74.7928 23.1842 78.4901 20.751C74.3662 22.7773 70.9638 25.42 67.5125 28.4353C66.9766 28.8916 66.9766 28.8916 66.4298 29.3572C61.1629 34.1801 57.5994 41.1876 56.9166 48.2871C56.8019 53.3144 57.7563 57.4912 59.9354 62.0004C60.3771 63.0146 60.3771 63.0146 60.3771 64.1123C59.3672 63.9858 59.3672 63.9858 58.1816 63.5634C54.5272 58.6254 53.0955 51.4685 53.7905 45.4505C55.6381 35.3111 61.148 27.3871 69.2621 21.1626C76.8262 16.048 84.4519 12.995 93.3099 10.8712C93.6938 10.7736 94.0777 10.6759 94.4733 10.5753C103.818 8.23171 113.653 8.5043 122.949 10.8712C123.863 11.0596 124.778 11.2447 125.694 11.4201C114.918 4.12697 104.794 3.18067 92.2121 5.38242C92.3933 4.83903 92.5744 4.29564 92.761 3.73579C94.0622 3.16806 95.2891 2.71464 96.6375 2.29498C96.9909 2.17612 97.3443 2.05725 97.7084 1.93478C111.326 -2.46394 128.893 0.842487 139.965 9.77344Z" fill="#F1917B"/>
<path d="M309.672 120.605C312.448 121.379 313.767 122.889 315.607 125.031C315.969 124.669 316.331 124.306 316.704 123.933C316.704 124.839 316.704 125.744 316.704 126.677C316.998 126.796 317.292 126.914 317.594 127.035C319.377 128.046 320.757 129.421 322.228 130.828C324.901 133.342 327.637 135.721 330.499 138.019C332.301 139.488 334.056 141.004 335.812 142.526C339.291 145.528 342.863 148.389 346.5 151.196C347.437 151.922 348.368 152.654 349.299 153.388C352.509 155.908 355.777 158.233 359.245 160.393C367.836 165.811 370.477 171.863 372.69 181.565C372.838 182.19 372.986 182.815 373.138 183.458C373.946 187.007 374.478 190.427 374.719 194.054C375.032 197.396 375.692 200.683 376.311 203.98C376.524 205.121 376.728 206.264 376.929 207.407C377.317 209.594 377.742 211.772 378.179 213.949C378.25 214.316 378.321 214.684 378.395 215.062C379.444 220.352 381.081 224.619 384.004 229.215C384.912 230.647 385.8 232.091 386.689 233.535C390.251 239.303 393.884 245.015 397.685 250.628C398.671 252.093 399.646 253.565 400.621 255.038C401.004 255.615 401.387 256.193 401.782 256.788C402.536 257.925 403.289 259.062 404.041 260.199C406.169 263.402 408.366 266.54 410.641 269.64C412.048 271.561 413.416 273.508 414.782 275.458C417.978 279.999 421.224 284.503 424.482 288.999C425.676 290.648 426.868 292.298 428.059 293.949C428.655 294.773 429.25 295.597 429.846 296.421C431.317 298.456 432.784 300.493 434.244 302.535C437.866 307.591 441.583 312.566 445.364 317.505C447.903 320.823 450.394 324.169 452.827 327.567C453.946 329.123 455.067 330.677 456.189 332.232C456.492 332.654 456.796 333.075 457.109 333.509C459 336.13 460.913 338.734 462.841 341.329C466.672 346.489 470.341 351.742 473.941 357.066C475.01 358.639 476.092 360.202 477.176 361.765C480.135 366.04 483.002 370.363 485.76 374.77C485.953 375.077 486.146 375.384 486.346 375.7C496.595 392.04 507.757 411.506 503.377 431.409C501.377 438.348 497.558 444.492 491.454 448.491C480.36 454.591 466.548 455.547 454.473 452.162C429.443 444.856 406.952 431.253 386.412 415.387C386.726 412.127 387.409 409.228 388.436 406.125C388.584 405.672 388.731 405.219 388.883 404.752C389.189 403.813 389.496 402.875 389.806 401.937C390.224 400.66 390.629 399.38 391.031 398.097C394.409 387.429 398.848 376.974 405.074 367.635C405.47 364.545 404.365 362.097 403.23 359.29C403.041 358.808 402.851 358.326 402.655 357.83C402.049 356.293 401.435 354.76 400.82 353.227C400.415 352.204 400.011 351.181 399.607 350.158C398.318 346.9 397.018 343.645 395.712 340.393C394.33 336.945 392.998 333.481 391.695 330.002C391.481 329.432 391.266 328.861 391.045 328.273C389.596 324.399 388.192 320.512 386.88 316.59C386.337 315.001 385.97 313.951 384.766 312.747C384.38 311.62 383.998 310.492 383.636 309.357C382.563 306.141 381.278 303 380.032 299.848C379.88 299.463 379.728 299.078 379.571 298.681C368.265 269.345 368.265 269.345 354.028 241.393C353.834 241.059 353.639 240.725 353.438 240.381C350.826 235.936 348.143 233.547 343.771 230.827C331.006 222.685 325.064 211.425 321.37 197.002C319.553 188.623 319.553 188.623 315.778 181.085C315.221 180.056 315.221 180.056 315.058 178.821C315.817 176.771 316.788 174.947 317.862 173.049C318.979 170.991 319.64 169.049 320.214 166.793C320.547 165.648 320.547 165.648 321.132 164.563C321.744 163.237 321.756 162.297 321.713 160.845C321.698 160.187 321.698 160.187 321.683 159.516C321.67 159.185 321.658 158.853 321.644 158.512C323.364 159.404 324.764 160.331 326.035 161.806C326.246 163.267 326.017 164.457 325.776 165.914C324.796 172.45 324.72 178.523 327.944 184.395C328.974 186.318 329.506 188.225 330.021 190.334C330.493 191.627 330.997 192.243 332.073 193.092C334.324 193.492 335.183 193.21 337.116 191.96C340.661 188.618 340.817 183.96 341.404 179.37C343.536 179.37 344.846 179.803 346.799 180.577C348.626 181.251 350.485 181.674 352.382 182.114C352.223 182.691 352.065 183.269 351.901 183.864C351.689 184.743 351.484 185.623 351.284 186.505C351.127 187.197 351.127 187.197 350.967 187.903C349.203 197.225 349.372 207.129 352.382 216.144C353.106 216.326 353.831 216.507 354.577 216.693C354.418 215.961 354.258 215.23 354.097 214.498C354.008 214.09 353.919 213.683 353.827 213.263C353.56 212.102 353.241 210.953 352.901 209.811C352.136 206.759 352.222 203.699 352.244 200.57C352.238 199.687 352.238 199.687 352.232 198.786C352.241 195.107 352.611 191.725 353.479 188.152C353.595 187.623 353.712 187.095 353.831 186.55C354.612 183.641 355.608 181.757 357.757 179.629C358.593 178.783 358.593 178.783 358.419 177.174C356.271 177.871 355.241 178.553 354.028 180.467C351.376 179.911 348.749 179.31 346.138 178.581C345.692 178.457 345.247 178.333 344.787 178.205C343.496 177.681 342.903 177.072 341.953 176.076C341.41 175.895 340.866 175.714 340.306 175.528C340.34 175.946 340.374 176.365 340.409 176.797C340.306 178.272 340.306 178.272 339.474 179.027C338.538 179.867 338.538 179.867 338.576 181.126C338.634 181.802 338.634 181.802 338.694 182.491C338.786 185.36 338.168 187.473 336.464 189.798C334.692 190.979 334.113 191.006 332.073 190.896C332.013 190.597 331.953 190.298 331.891 189.989C331.411 187.707 330.852 185.54 330.049 183.349C329.394 181.403 329.071 180.238 329.878 178.272C330.52 177.247 331.186 176.24 331.854 175.232C333.107 173.028 333.875 170.649 334.702 168.259C335.366 166.745 335.366 166.745 337.013 165.648C344.02 164.896 351.435 166.127 358.419 166.745C358.691 165.93 358.691 165.93 358.968 165.099C354.112 164.252 349.386 163.895 344.457 163.898C343.951 163.898 343.445 163.897 342.923 163.897C339.993 163.92 337.168 164.126 334.269 164.55C334.133 164.91 333.998 165.27 333.859 165.641C332.984 167.743 331.968 169.758 330.941 171.788C330.741 172.186 330.541 172.583 330.335 172.992C329.818 174.021 329.299 175.049 328.78 176.076C328.599 176.439 328.418 176.801 328.231 177.174C327.869 177.174 327.506 177.174 327.133 177.174C326.742 170.225 327.154 162.518 331.925 157.022C332.339 156.603 332.754 156.185 333.171 155.768C336.852 156.009 340.157 156.799 343.668 157.895C344.137 158.036 344.606 158.176 345.09 158.321C347.184 158.962 349.224 159.635 351.23 160.517C352.92 161.252 354.402 161.583 356.224 161.806C356.043 161.262 355.862 160.719 355.675 160.159C354.69 159.663 354.69 159.663 353.477 159.353C351.715 158.817 349.996 158.25 348.284 157.569C347.883 157.41 347.481 157.25 347.067 157.086C346.218 156.747 345.369 156.407 344.52 156.068C342.315 155.198 340.19 154.466 337.871 153.95C334.963 153.128 333.239 151.221 331.11 149.154C329.038 147.2 326.742 145.579 324.423 143.933C323.997 143.629 323.571 143.325 323.132 143.012C321.905 142.139 320.677 141.269 319.449 140.399C313.691 136.314 308.748 132.662 306.825 125.58C306.62 124.172 306.646 123.17 306.825 121.738C307.922 120.64 307.922 120.64 309.672 120.605Z" fill="#F29680"/>
<path d="M270.049 21.8511C270.792 22.2192 271.536 22.5851 272.281 22.9488C284.833 29.1861 295.289 39.7578 300.235 52.9484C301.725 57.5667 301.942 62.076 302.021 66.8933C302.033 67.3083 302.045 67.7233 302.057 68.1508C302.075 71.1821 301.438 73.4059 300.238 76.1899C300.056 76.1899 299.875 76.1899 299.689 76.1899C299.629 75.5404 299.568 74.8909 299.506 74.2217C298.311 61.9863 293.877 51.9981 284.32 43.8062C283.152 43.1468 283.152 43.1468 282.125 42.7084C282.357 42.9758 282.59 43.2433 282.83 43.5188C286.825 48.3479 289.896 54.1789 291.456 60.2725C291.623 60.904 291.623 60.904 291.794 61.5482C293.726 70.1865 292.526 78.7192 290.358 87.1675C290.214 87.7604 290.07 88.3533 289.923 88.9642C289.229 91.5766 288.607 93.0593 286.516 94.8518C285.624 96.0033 284.771 97.178 283.919 98.3594C283.574 98.7967 283.574 98.7967 283.222 99.2428C283.041 99.2428 282.86 99.2428 282.673 99.2428C282.666 98.8423 282.658 98.4418 282.65 98.0292C282.215 88.5177 279.466 78.6989 272.223 72.0626C264.923 66.5509 255.489 64.1634 246.937 61.3448C246.413 61.172 245.889 60.9993 245.35 60.8214C244.901 60.6734 244.452 60.5254 243.989 60.373C232.078 56.4154 222.425 51.2091 213.515 42.1595C213.537 42.8161 213.56 43.4727 213.583 44.1492C213.526 56.2703 208.544 66.7988 200.101 75.3495C196.852 78.3854 196.852 78.3854 194.304 78.3854C194.592 76.0477 196.054 74.5474 197.494 72.7937C199.702 70.0305 201.291 67.4554 202.537 64.1146C201.119 65.4373 200.049 66.8873 198.935 68.4713C197.691 70.2131 196.431 71.9075 195.031 73.5249C194.784 73.8097 194.538 74.0945 194.285 74.388C193.583 75.1905 192.874 75.9863 192.164 76.7817C190.901 78.3442 190.901 78.3442 190.462 80.3494C189.822 82.5373 189.108 83.2587 187.374 84.6975C186.635 85.3332 186.635 85.3332 185.882 85.9818C185.018 86.6844 184.141 87.3727 183.24 88.0272C176.522 93.1324 173.814 103.535 172.518 111.462C171.947 116.531 172.44 121.626 172.897 126.687C172.535 126.687 172.173 126.687 171.8 126.687C171.35 125.304 170.905 123.92 170.462 122.536C170.335 122.149 170.209 121.762 170.079 121.364C168.625 116.792 168.42 112.452 168.438 107.682C168.436 107.12 168.434 106.558 168.431 105.979C168.432 105.436 168.433 104.893 168.433 104.333C168.434 103.843 168.435 103.353 168.435 102.848C168.508 101.415 168.739 100.092 169.055 98.6939C168.693 98.6939 168.331 98.6939 167.958 98.6939C167.799 99.3505 167.641 100.007 167.477 100.684C167.153 102.028 166.785 103.285 166.299 104.582C165.441 107.451 165.579 110.294 165.589 113.27C165.59 114.355 165.577 115.44 165.564 116.525C165.561 121.232 166.145 125.45 167.409 129.98C167.542 130.477 167.676 130.975 167.814 131.488C169.258 136.74 171.226 141.566 174.544 145.897C174.725 146.441 174.906 146.984 175.093 147.544C175.983 148.483 176.901 149.396 177.837 150.288C178.398 150.883 178.398 150.883 178.969 151.489C180.011 152.463 180.925 153.023 182.228 153.582C182.228 154.125 182.228 154.668 182.228 155.228C181.685 155.228 181.142 155.228 180.582 155.228C181.385 156.606 182.155 157.886 183.189 159.105C183.875 160.168 183.875 160.168 183.704 161.403C183.579 161.72 183.454 162.037 183.326 162.364C180.805 160.543 179.104 158.55 177.872 155.674C177.053 154.278 175.936 153.828 174.544 153.033C173.801 152.313 173.069 151.58 172.349 150.837C171.918 150.52 171.488 150.203 171.045 149.877C169.436 148.498 168.317 147.015 167.096 145.295C166.345 144.239 166.345 144.239 165.43 143.402C164.295 142.219 164.014 140.861 163.566 139.311C163.204 139.311 162.842 139.311 162.469 139.311C162.009 138.42 161.552 137.528 161.097 136.635C160.842 136.138 160.587 135.642 160.325 135.13C159.724 133.822 159.724 133.822 159.724 132.724C158.638 133.268 158.638 133.268 157.529 133.822C157.302 133.51 157.076 133.198 156.843 132.877C151.905 126.275 145.443 121.251 137.22 119.551C135.086 119.376 132.979 119.393 130.84 119.448C130.288 119.456 129.737 119.463 129.169 119.471C127.827 119.49 126.486 119.517 125.145 119.551C119.235 95.9909 118.066 72.141 130.256 50.2898C140.806 32.9652 157.953 21.5967 177.465 16.6753C181.849 15.6112 186.084 14.7573 190.599 14.5441C193.716 14.3424 196.314 13.5546 199.238 12.4911C203.693 10.9291 208.298 10.3526 212.966 9.77575C213.602 9.69014 214.238 9.60452 214.893 9.51632C233.203 7.59477 254.072 13.1194 270.049 21.8511Z" fill="#F5C246"/>
<path d="M177.288 201.32C179.639 203.306 181.917 205.341 184.149 207.461C198.536 220.789 217.863 230.098 237.665 230.584C238.259 230.602 238.259 230.602 238.864 230.619C240.111 230.655 241.358 230.687 242.605 230.72C243.457 230.743 244.31 230.767 245.163 230.791C247.237 230.85 249.312 230.905 251.387 230.96C251.387 230.054 251.387 229.148 251.387 228.215C251.568 228.215 251.749 228.215 251.936 228.215C251.988 228.549 252.04 228.882 252.094 229.226C253.325 236.984 254.941 244.367 257.425 251.817C257.777 251.902 258.13 251.988 258.493 252.076C258.865 252.171 259.237 252.267 259.62 252.366C260.402 253.828 261.022 255.185 261.61 256.723C261.778 257.15 261.945 257.578 262.118 258.018C264.833 265.111 266.087 273.568 263.462 280.908C259.513 289.19 253.75 293.665 245.199 296.769C228.425 301.727 211.031 298.997 195.839 290.783C189.183 287.108 183.121 282.498 178.386 276.517C177.964 276.005 177.543 275.493 177.108 274.966C172.463 269.231 165.213 259.935 165.213 252.366C165.881 252.094 166.549 251.823 167.237 251.543C171.224 249.493 172.336 246.091 173.755 242.006C177.785 228.648 177.565 215.116 177.288 201.32Z" fill="#F2957F"/>
<path d="M19.7597 426.365C20.3986 426.615 20.3986 426.615 21.0504 426.869C24.9547 428.383 28.8694 429.823 32.8277 431.189C34.5794 431.854 34.5794 431.854 36.2347 432.69C37.9161 433.522 39.5389 434.071 41.3375 434.598C43.3265 435.186 45.298 435.794 47.2573 436.472C50.5081 437.563 53.8251 438.373 57.1521 439.195C57.8247 439.362 58.4973 439.529 59.1903 439.701C67.9477 441.853 76.6732 443.892 85.6253 445.027C86.9752 445.229 88.3246 445.435 89.6733 445.645C90.2662 445.737 90.8591 445.829 91.47 445.923C91.8959 445.99 92.3219 446.056 92.7607 446.125C92.2173 446.397 92.2173 446.397 91.663 446.674C91.365 447.898 91.1237 449.137 90.9082 450.379C90.4558 452.984 89.8725 455.429 89.0644 457.947C87.2978 463.56 85.9828 469.294 84.5961 475.01C84.4504 475.607 84.3047 476.205 84.1546 476.821C81.3072 488.505 78.6533 500.195 76.2943 511.99C51.1172 511.99 25.9401 511.99 0 511.99C0.836256 506.554 1.76648 501.184 2.84731 495.798C2.97174 495.175 2.97174 495.175 3.09867 494.54C4.65158 486.794 6.44334 479.122 8.3538 471.455C8.9715 468.962 9.56379 466.463 10.1543 463.963C13.147 451.367 16.1569 438.803 19.7597 426.365Z" fill="#F2967F"/>
<path d="M139.965 9.7734C143.27 12.6549 146.323 15.6363 148.198 19.6532C147.785 19.8541 147.371 20.0551 146.946 20.2621C133.498 27.1164 123.186 37.5005 116.363 50.9392C116.141 51.3312 115.919 51.7232 115.69 52.127C113.97 55.2658 112.789 58.576 111.629 61.9511C111.47 62.401 111.311 62.8509 111.148 63.3144C108.382 71.6174 107.829 79.8547 107.89 88.5373C107.891 89.0412 107.892 89.545 107.894 90.0642C107.942 100.814 109.127 110.975 112.301 121.289C113.161 124.185 113.161 124.185 112.69 125.745C112.453 126.055 112.216 126.365 111.972 126.684C111.61 127.161 111.61 127.161 111.241 127.647C110.973 127.975 110.704 128.302 110.428 128.64C106.003 134.454 105.291 140.13 105.351 147.233C105.353 147.792 105.356 148.35 105.358 148.926C105.365 150.294 105.374 151.662 105.385 153.03C97.533 145.379 92.4136 133.59 90.5655 122.842C90.4643 122.345 90.3631 121.847 90.2589 121.335C88.605 112.016 88.8475 101.95 90.5655 92.6539C90.1983 92.6015 89.8311 92.5492 89.4527 92.4952C82.637 90.8652 77.2021 86.6157 72.4524 81.6763C71.9059 81.1361 71.9059 81.1361 71.3483 80.585C62.9571 71.7791 61.0617 60.5672 61.269 48.8723C61.5619 41.948 63.9289 36.1954 68.0614 30.6307C68.5613 29.9207 68.5613 29.9207 69.0713 29.1964C71.7185 25.6289 74.7928 23.1841 78.4901 20.751C74.3662 22.7772 70.9638 25.42 67.5125 28.4352C66.9766 28.8916 66.9766 28.8916 66.4298 29.3572C61.1629 34.1801 57.5994 41.1875 56.9166 48.287C56.8019 53.3144 57.7563 57.4912 59.9354 62.0004C60.3771 63.0145 60.3771 63.0145 60.3771 64.1123C59.3672 63.9858 59.3672 63.9858 58.1816 63.5634C54.5272 58.6254 53.0955 51.4684 53.7905 45.4504C55.6381 35.311 61.148 27.3871 69.2621 21.1626C76.8262 16.048 84.4519 12.9949 93.3099 10.8712C93.6938 10.7735 94.0777 10.6759 94.4733 10.5753C103.818 8.23167 113.653 8.50426 122.949 10.8712C123.863 11.0596 124.778 11.2446 125.694 11.42C114.918 4.12693 104.794 3.18064 92.2121 5.38238C92.3933 4.839 92.5744 4.29561 92.761 3.73575C94.0622 3.16802 95.2891 2.7146 96.6375 2.29495C96.9909 2.17608 97.3443 2.05722 97.7084 1.93475C111.336 -2.46728 128.88 0.850449 139.965 9.7734Z" fill="#F3C143"/>
<path d="M219.552 8.67196C220.095 9.21535 220.095 9.21535 220.65 9.76972C219.585 9.86948 219.585 9.86948 218.499 9.97126C208.394 10.8103 208.394 10.8103 198.626 13.3374C195.484 14.4779 192.519 15.0103 189.192 15.2928C171.937 16.7749 155.656 24.0734 142.709 35.567C142.259 35.9639 141.81 36.3608 141.347 36.7698C128.79 48.5677 121.976 66.0161 121.242 83.0715C120.991 94.492 122.094 105.096 124.91 116.166C125.144 117.35 125.144 117.35 125.144 119.545C125.688 119.364 126.231 119.183 126.791 118.996C136.429 118.096 143.581 120.214 151.268 126.13C159.141 132.752 163.94 142.311 165.213 152.478C165.848 161.532 164.733 170.112 158.626 177.177C158.344 177.511 158.063 177.844 157.773 178.187C153.267 183.113 147.464 185.282 140.914 185.614C131.582 185.822 125.735 183.936 118.558 177.726C110.944 170.412 105.029 159.235 104.744 148.541C104.663 140.753 105.384 135.043 109.776 128.327C110.287 127.883 110.797 127.439 111.324 126.981C112.735 125.665 112.735 125.665 112.385 123.818C112.169 123.144 111.953 122.47 111.731 121.775C111.501 120.999 111.276 120.222 111.054 119.444C110.932 119.024 110.811 118.604 110.686 118.171C110.018 115.64 109.579 113.065 109.124 110.489C109.033 109.984 108.942 109.48 108.848 108.96C108.033 104.376 107.493 99.9225 107.449 95.2681C107.444 94.7936 107.439 94.319 107.433 93.8301C107.252 73.8635 107.252 73.8635 109.776 65.7552C109.911 65.3174 110.047 64.8796 110.186 64.4286C114.088 52.2561 120.127 42.0283 128.987 32.8226C129.327 32.4412 129.667 32.0598 130.018 31.6669C150.17 9.80168 191.581 1.80289 219.552 8.67196Z" fill="#282B45"/>
<path d="M287.614 92.6562C295.117 92.6805 300.246 95.0427 305.63 100.229C306.024 100.628 306.418 101.027 306.824 101.438C307.134 101.735 307.443 102.033 307.761 102.339C312.739 107.54 316.259 116.461 316.293 123.599C316.247 124.256 316.202 124.912 316.155 125.589C315.768 125.251 315.768 125.251 315.373 124.907C315.031 124.611 314.689 124.316 314.337 124.011C314 123.718 313.662 123.425 313.315 123.123C311.421 121.558 310.368 121.005 307.922 121.198C307.196 121.809 307.196 121.809 307.202 123.359C307.301 127.754 309.471 131.526 312.427 134.654C315.974 137.809 319.947 140.446 323.84 143.153C324.94 143.927 326.039 144.704 327.133 145.486C327.604 145.822 328.075 146.158 328.561 146.504C329.935 147.589 331.069 148.785 332.279 150.048C335.978 153.498 340.85 154.475 345.578 155.903C347.732 156.596 349.741 157.538 351.773 158.522C353.217 159.206 354.693 159.713 356.224 160.168C356.224 160.712 356.224 161.255 356.224 161.815C352.879 161.695 350.1 160.906 346.996 159.688C340.283 156.911 340.283 156.911 333.171 156.326C329.498 158.953 328.668 164.174 327.87 168.344C327.393 171.272 327.226 174.22 327.133 177.183C327.495 177.183 327.858 177.183 328.231 177.183C328.367 176.823 328.504 176.462 328.645 176.09C329.507 174.007 330.488 171.998 331.49 169.979C331.68 169.587 331.871 169.194 332.068 168.789C332.349 168.222 332.349 168.222 332.637 167.642C332.805 167.301 332.974 166.959 333.147 166.606C334.124 164.986 334.912 164.131 336.758 163.639C339.306 163.401 341.83 163.357 344.388 163.359C344.92 163.358 345.451 163.358 345.998 163.357C350.399 163.39 354.633 163.803 358.968 164.559C358.968 165.284 358.968 166.008 358.968 166.755C357.271 167.273 355.945 167.31 354.187 167.117C353.688 167.066 353.189 167.014 352.675 166.961C352.148 166.904 351.621 166.848 351.078 166.789C343.328 165.558 343.328 165.558 335.915 166.755C335.469 167.827 335.064 168.917 334.68 170.014C333.581 173.013 332.268 175.543 330.448 178.161C329.483 180.221 330.334 181.822 330.975 183.907C331.597 186.24 331.866 188.506 332.073 190.905C334.32 190.511 334.32 190.511 336.464 189.808C337.319 188.516 337.319 188.516 337.562 187.063C337.743 186.52 337.924 185.976 338.111 185.417C338.106 184.018 338.04 182.628 337.969 181.231C338.141 179.645 338.592 179.31 339.757 178.281C340.154 176.851 340.154 176.851 340.306 175.537C341.88 175.852 342.426 176.01 343.599 177.183C344.708 177.637 344.708 177.637 345.988 178.011C346.688 178.229 346.688 178.229 347.403 178.451C347.891 178.598 348.379 178.746 348.882 178.899C349.375 179.051 349.867 179.203 350.375 179.36C351.592 179.735 352.809 180.107 354.028 180.477C354.267 179.964 354.267 179.964 354.511 179.441C355.25 178.046 355.958 177.419 357.321 176.635C357.865 176.816 358.408 176.997 358.968 177.183C358.772 178.882 358.338 179.467 357.15 180.751C351.634 187.051 352.587 197.969 352.815 205.741C353.013 208.541 353.719 211.011 354.699 213.643C355.15 215.135 355.12 215.814 354.577 217.251C353.582 217.217 353.582 217.217 352.382 216.703C349.642 211.75 349.451 206.154 349.5 200.614C349.503 200.009 349.507 199.404 349.51 198.782C349.581 192.922 350.037 187.559 352.382 182.123C352.043 182.063 351.704 182.003 351.355 181.941C348.113 181.334 345.053 180.502 341.953 179.379C341.859 179.975 341.766 180.57 341.67 181.184C341.536 181.978 341.401 182.771 341.267 183.564C341.176 184.151 341.176 184.151 341.084 184.75C340.502 188.092 339.233 190.332 336.807 192.758C335.004 193.874 334.154 194.083 332.073 193.65C329.643 191.502 328.924 189.423 328.134 186.332C327.661 184.801 326.989 183.587 326.207 182.192C323.68 176.864 324.585 170 325.418 164.319C325.662 162.444 325.662 162.444 324.79 160.846C323.799 159.956 323.799 159.956 322.193 159.07C322.222 159.627 322.222 159.627 322.251 160.194C322.266 160.684 322.281 161.173 322.296 161.678C322.315 162.162 322.334 162.646 322.354 163.144C322.161 164.844 321.586 165.424 320.546 166.755C320.178 167.852 319.849 168.964 319.552 170.082C317.03 178.514 311.614 185.065 304.629 190.356C304.006 190.662 303.384 190.968 302.742 191.283C300.996 192.859 301.121 193.421 300.993 195.708C300.97 196.29 300.947 196.871 300.924 197.47C300.654 200.758 299.241 203.071 296.876 205.313C292.576 208.729 286.972 210.181 281.576 209.567C277.666 208.337 275.368 206.508 273.343 202.981C272.296 199.839 272.143 196.008 273.272 192.869C275.448 189.188 278.839 186.324 282.785 184.698C284.794 184.202 286.756 184.101 288.814 184.079C289.186 184.073 289.558 184.068 289.941 184.062C292.507 184.106 294.168 184.754 296.396 185.965C297.757 186.543 297.757 186.543 299.14 186.514C306.874 181.956 312.259 174.229 314.509 165.657C314.714 164.563 314.894 163.465 315.058 162.364C315.199 161.418 315.199 161.418 315.343 160.453C315.73 156.651 315.73 156.651 314.409 153.18C313.037 151.692 311.52 150.455 309.912 149.231C309.436 148.856 308.961 148.48 308.471 148.093C308.471 147.731 308.471 147.368 308.471 146.995C308.132 147.28 307.793 147.565 307.444 147.859C304.455 150.32 301.502 152.394 298.042 154.131C297.677 154.323 297.312 154.515 296.936 154.714C294.139 156.035 291.243 156.48 288.163 156.326C288.292 155.279 288.292 155.279 288.424 154.21C289.583 142.47 289.931 129.664 285.967 118.453C285.767 117.88 285.567 117.306 285.361 116.715C283.625 110.312 283.625 110.312 280.478 104.732C280.301 103.128 280.276 102.281 281.203 100.932C281.53 100.601 281.857 100.27 282.193 99.9289C284.304 97.6768 285.968 95.2604 287.614 92.6562Z" fill="#C25F55"/>
<path d="M162.469 170.602C162.698 171.085 162.698 171.085 162.932 171.578C163.949 173.532 165.296 175.227 166.62 176.982C166.914 177.373 167.209 177.765 167.513 178.168C171.087 182.863 174.867 187.212 179.484 190.91C180.103 191.414 180.103 191.414 180.734 191.928C194.377 202.461 211.875 207.069 228.917 206.965C229.615 206.969 230.313 206.973 231.033 206.978C234.835 206.97 238.424 206.711 242.16 206.006C244.49 205.589 246.834 205.379 249.192 205.181C249.219 205.496 249.247 205.81 249.275 206.134C249.855 213.218 249.855 213.218 250.907 220.241C251.354 222.629 251.437 224.898 251.417 227.327C251.413 228.012 251.409 228.698 251.404 229.404C251.399 229.924 251.393 230.443 251.387 230.978C231.297 231.325 231.297 231.325 223.943 229.331C223.521 229.222 223.098 229.113 222.663 229.001C207.228 224.956 194.461 217.374 182.743 206.656C182.311 206.261 182.311 206.261 181.871 205.859C181.058 205.099 180.268 204.323 179.484 203.534C178.973 203.021 178.462 202.508 177.936 201.98C176.425 199.784 176.315 198.245 176.294 195.644C176.28 195.24 176.266 194.836 176.252 194.42C176.22 193.433 176.204 192.446 176.191 191.459C175.5 191.504 174.81 191.549 174.098 191.596C169.478 191.616 163.351 190.802 159.175 188.715C159.4 189.126 159.625 189.538 159.857 189.962C163.584 197.042 164.938 204.815 163.086 212.719C160.612 219.652 156.219 224.288 149.759 227.775C148.243 228.462 147.129 228.783 145.453 228.783C145.453 228.42 145.453 228.058 145.453 227.685C146.279 227.05 146.279 227.05 147.409 226.313C151.314 223.475 153.731 219.76 154.784 215.061C155.52 206.342 153.743 198.993 148.043 192.151C146.837 190.798 145.613 189.471 144.356 188.166C144.116 187.85 143.877 187.535 143.631 187.209C142.132 186.087 140.599 186.226 138.764 186.142C138.066 186.106 137.367 186.069 136.648 186.032C136.112 186.012 135.576 185.991 135.025 185.97C135.025 185.789 135.025 185.608 135.025 185.421C135.589 185.401 136.152 185.38 136.733 185.359C145.462 184.976 152.51 183.283 158.757 176.731C160.291 174.844 161.416 172.788 162.469 170.602Z" fill="#EC7A63"/>
<path d="M315.057 320.979C320.346 324.716 323.78 329.546 325.486 335.799C326.223 341.9 325.551 347.309 322.741 352.814C322.333 353.632 322.333 353.632 321.916 354.465C319.649 358.65 316.761 362.16 313.612 365.694C312.899 366.494 312.195 367.302 311.491 368.11C307.097 373.104 307.097 373.104 304.628 374.769C302.374 374.636 300.772 373.098 299.071 371.751C298.757 371.505 298.443 371.26 298.12 371.007C295.233 368.727 292.486 366.313 289.808 363.792C289.46 363.472 289.111 363.152 288.751 362.823C282.614 356.998 278.379 349.306 278.076 340.739C278.333 334.33 280.417 328.53 285.145 324.075C294.112 316.752 304.849 315.187 315.057 320.979Z" fill="#FDFBFA"/>
<path d="M287.613 92.6562C295.115 92.6805 300.245 95.0427 305.629 100.229C306.023 100.628 306.417 101.027 306.823 101.438C307.133 101.735 307.442 102.033 307.76 102.339C312.738 107.54 316.258 116.461 316.292 123.599C316.246 124.256 316.201 124.912 316.154 125.589C315.767 125.251 315.767 125.251 315.372 124.907C315.03 124.611 314.688 124.316 314.336 124.011C313.999 123.718 313.661 123.425 313.314 123.123C311.42 121.558 310.366 121.005 307.921 121.198C307.195 121.809 307.195 121.809 307.201 123.359C307.24 126.511 308.548 129.761 310.466 132.238C311.214 133.273 311.214 133.273 311.214 134.92C308.483 134.269 307.212 133.276 305.501 131.157C304.605 130.363 304.605 130.363 303.155 130.707C302.526 130.89 302.526 130.89 301.884 131.078C301.52 135.774 301.935 139.211 304.628 143.153C305.413 144.018 305.413 144.018 306.206 144.731C306.591 145.116 306.976 145.501 307.372 145.897C307.297 147.475 306.873 148.042 305.762 149.171C300.512 153.308 295.074 156.672 288.162 156.326C288.248 155.628 288.334 154.929 288.423 154.21C289.582 142.47 289.93 129.664 285.966 118.453C285.666 117.593 285.666 117.593 285.36 116.715C283.624 110.312 283.624 110.312 280.477 104.732C280.3 103.128 280.275 102.281 281.202 100.932C281.529 100.601 281.856 100.27 282.192 99.9289C284.303 97.6768 285.967 95.2604 287.613 92.6562Z" fill="#2D304C"/>
<path d="M315.607 153.586C318.055 154.512 319.537 155.246 321.095 157.428C322.586 164.699 318.873 173.941 315.058 179.932C311.784 184.223 307.612 188.896 302.742 191.287C300.996 192.863 301.121 193.426 300.993 195.712C300.97 196.294 300.947 196.875 300.924 197.475C300.654 200.762 299.241 203.075 296.876 205.318C292.576 208.733 286.972 210.185 281.576 209.571C277.666 208.342 275.368 206.513 273.343 202.985C272.296 199.844 272.143 196.012 273.272 192.874C275.448 189.193 278.839 186.329 282.785 184.703C284.794 184.206 286.756 184.105 288.814 184.083C289.372 184.075 289.372 184.075 289.941 184.066C292.507 184.111 294.168 184.759 296.396 185.97C297.757 186.547 297.757 186.547 299.14 186.519C306.874 181.96 312.259 174.233 314.509 165.661C315.029 163.036 315.219 160.436 315.366 157.771C315.402 157.165 315.402 157.165 315.438 156.547C315.496 155.56 315.551 154.573 315.607 153.586Z" fill="#23263F"/>
<path d="M162.469 170.602C162.698 171.085 162.698 171.085 162.933 171.579C163.942 173.52 165.273 175.203 166.585 176.948C167.021 177.533 167.021 177.533 167.465 178.129C169.674 181.054 172.039 183.675 174.673 186.23C175.94 188.044 175.822 189.295 175.642 191.459C172.003 191.573 168.791 191.199 165.247 190.395C164.781 190.295 164.316 190.195 163.835 190.092C160.449 189.351 160.449 189.351 159.175 188.715C159.4 189.126 159.625 189.538 159.857 189.962C163.584 197.042 164.938 204.815 163.086 212.719C160.612 219.652 156.219 224.288 149.759 227.775C148.243 228.462 147.129 228.783 145.453 228.783C145.453 228.42 145.453 228.058 145.453 227.685C146.279 227.05 146.279 227.05 147.409 226.313C151.314 223.475 153.731 219.76 154.784 215.061C155.52 206.342 153.743 198.993 148.043 192.151C146.837 190.798 145.613 189.471 144.356 188.166C144.116 187.85 143.877 187.535 143.631 187.209C142.132 186.087 140.599 186.226 138.764 186.142C138.066 186.106 137.367 186.069 136.648 186.032C136.112 186.012 135.576 185.991 135.025 185.97C135.025 185.789 135.025 185.608 135.025 185.421C135.589 185.401 136.152 185.38 136.733 185.359C145.462 184.976 152.51 183.283 158.757 176.731C160.291 174.844 161.416 172.788 162.469 170.602Z" fill="#F3C24B"/>
<path d="M286.213 98.5425C290.186 100.55 292.388 104.605 294.337 108.444C294.511 108.783 294.685 109.122 294.864 109.472C297.931 115.811 298.953 121.737 298.877 128.696C298.865 129.986 298.877 131.274 298.891 132.564C298.905 139.405 297.718 145.278 294.097 151.188C292.577 153.661 292.577 153.661 291.455 156.333C290.369 156.333 289.282 156.333 288.162 156.333C288.248 155.635 288.335 154.937 288.424 154.217C289.583 142.477 289.93 129.671 285.967 118.461C285.667 117.6 285.667 117.6 285.361 116.722C283.625 110.32 283.625 110.32 280.478 104.739C280.272 103.538 280.272 103.538 280.478 101.994C283.495 97.7536 283.495 97.7536 286.213 98.5425Z" fill="#202237"/>
<path d="M207.477 138.217C210.152 140.064 210.881 142.302 211.589 145.341C212.508 150.807 211.771 155.59 209.672 160.721C208.575 161.818 208.575 161.818 207.44 161.883C200.403 161.2 193.723 157.448 189.158 152.042C187.947 149.666 187.846 148.548 188.266 145.901C189.799 144.149 190.759 143.246 193.103 142.985C195.174 143.188 196.521 143.827 198.352 144.803C198.933 145.109 199.515 145.415 200.114 145.729C200.551 145.967 200.989 146.205 201.439 146.45C201.414 146.125 201.388 145.8 201.362 145.466C201.256 143.146 201.208 141.881 202.468 139.863C204.146 138.284 205.185 137.897 207.477 138.217Z" fill="#F27A6E"/>
<path d="M302.433 129.99C304.498 129.994 305.199 130.558 306.736 131.961C307.307 132.57 307.873 133.182 308.437 133.798C311.407 136.906 314.508 139.383 318.044 141.806C322.975 145.186 327.654 149.022 332.073 153.043C331.387 155.099 330.34 155.947 328.78 157.434C328.361 157.853 327.942 158.272 327.51 158.703C327.205 159.009 326.899 159.315 326.584 159.63C326.244 159.415 325.905 159.199 325.555 158.978C322.783 157.37 319.928 155.831 316.925 154.703C315.604 154.14 314.776 153.557 313.72 152.597C312.464 151.471 311.198 150.387 309.878 149.338C309.413 148.931 308.949 148.523 308.471 148.103C308.471 147.741 308.471 147.379 308.471 147.005C308.109 147.005 307.747 147.005 307.373 147.005C303.107 142.504 301.147 138.71 301.17 132.501C301.336 131.088 301.336 131.088 302.433 129.99Z" fill="#F0947E"/>
<path d="M273.926 124.119C276.202 124.652 276.965 125.303 278.283 127.241C279.174 131.619 277.686 135.712 275.343 139.385C274.532 140.498 273.677 141.553 272.794 142.609C272.48 143.015 272.167 143.42 271.844 143.838C270.397 145.636 269.389 146.817 267.236 147.721C264.949 147.472 264.358 146.574 262.914 144.805C262.648 144.492 262.382 144.178 262.108 143.855C258.188 139.005 256.564 134.572 256.619 128.321C256.876 126.692 256.876 126.692 257.569 125.654C259.152 124.644 260.397 124.841 262.206 125.088C264.276 125.922 265.052 127.527 266.102 129.419C266.667 130.614 266.667 130.614 267.854 131.083C267.967 130.608 268.08 130.132 268.197 129.642C269.347 126.819 270.869 124.805 273.926 124.119Z" fill="#EF6557"/>
<path d="M405.622 365.434C407.936 370.006 410.05 374.679 412.106 379.372C416.071 388.419 420.215 397.157 425.428 405.554C426.517 407.319 427.425 409.037 428.127 410.99C427.764 411.353 427.402 411.715 427.029 412.088C424.604 411.853 423.662 410.464 422.181 408.683C417.167 402.214 412.765 395.404 408.682 388.315C407.762 386.744 406.804 385.199 405.843 383.652C405.208 382.588 404.574 381.524 403.942 380.459C403.63 379.972 403.318 379.485 402.997 378.983C402.167 377.546 401.567 376.392 401.231 374.765C401.803 372.687 402.811 371.07 403.976 369.276C404.325 368.529 404.659 367.775 404.971 367.012C405.186 366.491 405.401 365.97 405.622 365.434Z" fill="#E67962"/>
<path d="M120.753 37.209C121.025 37.7524 121.025 37.7524 121.302 38.3067C120.619 38.7249 120.619 38.7249 119.921 39.1515C113.309 43.5743 107.985 50.3299 103.738 56.9686C103.391 57.5013 103.045 58.0341 102.687 58.583C96.4698 68.649 93.1137 80.5184 91.1138 92.0967C90.3893 92.0967 89.6647 92.0967 88.9183 92.0967C88.1273 77.1571 91.7773 62.3976 101.645 50.8966C107.312 44.8787 113.495 40.9996 120.753 37.209Z" fill="#EDA536"/>
<path d="M162.468 170.602C162.621 170.924 162.774 171.247 162.932 171.579C163.942 173.52 165.273 175.203 166.584 176.948C166.875 177.338 167.165 177.728 167.464 178.129C169.674 181.054 172.038 183.675 174.672 186.23C175.94 188.044 175.821 189.295 175.641 191.459C172.012 191.572 168.814 191.201 165.281 190.395C164.82 190.295 164.358 190.195 163.883 190.092C158.797 188.975 158.797 188.975 157.942 187.677C157.726 187.249 157.51 186.822 157.288 186.382C156.252 184.414 155.153 182.715 153.686 181.03C153.977 180.785 154.269 180.539 154.569 180.286C157.972 177.374 160.318 174.518 162.468 170.602Z" fill="#E3A22B"/>
<path d="M266.756 68.502C273.642 71.8176 278.255 77.2348 280.873 84.4044C281.678 86.9333 282.229 89.4894 282.673 92.1037C282.736 92.4641 282.8 92.8245 282.865 93.1958C283.794 98.9065 283.794 98.9065 282.517 100.875C281.61 101.64 281.61 101.64 279.929 102.532C277.986 98.0214 276.224 93.4539 274.494 88.858C273.131 85.2533 271.692 81.6874 270.142 78.1584C269.143 75.8151 268.658 73.7558 268.402 71.2463C268.04 71.2463 267.678 71.2463 267.304 71.2463C267.123 70.3407 266.942 69.435 266.756 68.502Z" fill="#CD861A"/>
<path d="M223.943 103.637C225.075 103.877 225.075 103.877 226.139 104.186C226.226 104.578 226.313 104.971 226.403 105.376C229.199 117.319 234.685 126.783 244.995 133.683C246.584 134.747 247.565 135.502 248.643 137.118C249.07 140.34 248.915 143.202 246.996 145.9C244.274 148.87 241.094 151.055 237.117 151.938C235.579 151.715 235.579 151.715 234.372 151.389C234.451 150.375 234.451 150.375 234.921 149.194C236.3 148.475 236.3 148.475 238.043 147.856C240.802 146.788 242.738 145.823 244.801 143.705C245.86 140.692 245.86 140.692 245.35 137.667C243.699 136.256 241.947 135.139 240.116 133.979C231.486 128.472 225.78 117.741 223.395 108.028C223.228 106.651 223.24 105.572 223.395 104.186C223.576 104.004 223.757 103.823 223.943 103.637Z" fill="#414159"/>
<path d="M198.695 115.164C200.711 116.288 202.406 117.86 203.086 120.104C203.421 122.354 203.288 123.123 201.919 124.976C200.341 126.142 200.341 126.142 198.695 126.485C196.478 126.023 195.681 125.168 194.304 123.398C193.858 121.854 193.858 121.854 193.755 120.653C193.393 120.653 193.03 120.653 192.657 120.653C192.083 121.713 191.592 122.743 191.236 123.895C190.561 126.034 190.089 127.083 188.369 128.612C186.507 129.488 185.356 129.628 183.326 129.435C183.145 128.711 182.964 127.986 182.777 127.24C183.864 126.877 184.951 126.515 186.071 126.142C185.76 126.042 185.449 125.942 185.129 125.84C184.727 125.702 184.324 125.564 183.909 125.422C183.508 125.288 183.107 125.154 182.694 125.016C181.679 124.495 181.679 124.495 181.131 122.849C181.312 122.486 181.493 122.124 181.679 121.751C182.123 121.802 182.567 121.853 183.024 121.905C184.853 122.029 186.457 122.064 188.266 121.751C189.314 120.739 189.797 119.789 190.429 118.483C192.077 115.297 195.398 114.396 198.695 115.164Z" fill="#36364F"/>
<path d="M341.953 178.83C342.246 178.93 342.539 179.03 342.84 179.132C346.001 180.199 349.181 181.181 352.381 182.123C352.223 182.701 352.065 183.278 351.901 183.873C350.263 190.54 349.911 197.248 349.637 204.078C349.456 204.078 349.275 204.078 349.088 204.078C349.088 202.267 349.088 200.456 349.088 198.59C348.726 198.59 348.364 198.59 347.99 198.59C347.691 197.984 347.691 197.984 347.386 197.365C344.813 192.279 344.813 192.279 340.1 189.362C339.806 189.328 339.512 189.294 339.208 189.259C339.377 188.882 339.547 188.506 339.721 188.118C340.37 186.34 340.637 184.683 340.889 182.809C341.347 179.436 341.347 179.436 341.953 178.83Z" fill="#E37865"/>
<path d="M264.561 99.2422C265.285 99.4233 266.01 99.6044 266.756 99.7911C266.427 101.633 265.743 102.743 264.561 104.182C265.647 104.182 266.734 104.182 267.854 104.182C267.854 104.907 267.854 105.631 267.854 106.378C266.953 107.278 265.936 107.063 264.698 107.098C262.083 107.079 260.977 106.582 259.072 104.731C257.601 104.05 257.601 104.05 256.327 103.633C256.353 104.004 256.378 104.375 256.405 104.757C256.566 108.737 256.566 108.737 255.435 110.563C253.745 111.542 252.765 111.598 250.839 111.317C249.117 110.341 248.73 109.933 248.094 108.024C247.725 104.275 247.725 104.275 248.669 102.634C249.646 101.444 250.55 100.484 251.936 99.7911C255.548 99.4842 258.056 99.6791 261.267 101.438C262.797 101.326 262.797 101.326 264.012 100.889C264.193 100.345 264.374 99.802 264.561 99.2422Z" fill="#363850"/>
<path d="M343.598 509.256C343.779 509.256 343.961 509.256 344.147 509.256C344.147 510.162 344.147 511.067 344.147 512C270.789 512 197.432 512 121.851 512C122.949 510.902 122.949 510.902 124.493 510.77C125.492 510.773 125.492 510.773 126.512 510.776C126.884 510.776 127.256 510.775 127.64 510.775C128.898 510.775 130.157 510.783 131.416 510.791C132.322 510.793 133.229 510.794 134.135 510.795C136.636 510.799 139.137 510.81 141.638 510.821C144.331 510.833 147.024 510.838 149.717 510.844C154.386 510.855 159.056 510.87 163.725 510.888C170.476 510.914 177.227 510.934 183.978 510.952C194.93 510.982 205.882 511.016 216.834 511.054C227.475 511.091 238.117 511.125 248.758 511.157C249.414 511.158 250.069 511.16 250.745 511.162C254.033 511.172 257.321 511.182 260.61 511.191C287.907 511.271 315.204 511.359 342.501 511.451C342.501 511.089 342.501 510.727 342.501 510.354C342.863 510.354 343.225 510.354 343.598 510.354C343.598 509.991 343.598 509.629 343.598 509.256Z" fill="#FC6E18"/>
<path d="M311.764 154.132C313.145 154.57 314.308 155.116 315.606 155.779C315.908 162.104 314.671 167.504 312.312 173.343C312.131 173.343 311.95 173.343 311.764 173.343C311.594 172.709 311.424 172.075 311.249 171.422C310.24 168.308 308.575 165.596 306.851 162.832C305.403 160.412 304.762 158.68 305.177 155.779C306.726 153.378 309.201 153.802 311.764 154.132Z" fill="#EC9581"/>
<path d="M357.321 176.637C357.865 176.818 358.408 176.999 358.968 177.186C358.772 178.884 358.337 179.469 357.15 180.753C351.633 187.053 352.587 197.971 352.815 205.744C353.013 208.543 353.718 211.014 354.699 213.645C355.15 215.137 355.12 215.816 354.577 217.254C353.582 217.219 353.582 217.219 352.381 216.705C349.641 211.752 349.451 206.156 349.5 200.616C349.503 200.011 349.506 199.407 349.51 198.784C349.581 192.924 350.036 187.562 352.381 182.125C351.657 181.763 350.932 181.401 350.186 181.028C351.103 180.96 351.103 180.96 352.038 180.891C352.695 180.755 353.351 180.619 354.028 180.479C354.718 179.464 354.718 179.464 355.126 178.283C356.189 177.289 356.189 177.289 357.321 176.637Z" fill="#B25C55"/>
<path d="M253.033 160.172C253.758 160.353 254.482 160.534 255.229 160.721C255.433 162.531 255.332 163.307 254.322 164.857C251.565 167.906 249.262 169.865 245.349 171.149C244.817 171.376 244.285 171.602 243.736 171.836C236.484 173.612 230.644 170.864 224.491 167.307C224.672 166.402 224.854 165.496 225.04 164.563C227.51 164.794 229.14 165.876 231.151 167.222C234.591 169.352 239.782 168.784 243.702 168.405C247.982 167.369 250.084 164.909 252.386 161.276C252.599 160.912 252.813 160.547 253.033 160.172Z" fill="#404159"/>
<path d="M311.764 344.033C313.122 344.305 313.122 344.305 314.508 344.582C314.433 347.597 313.176 349.195 311.176 351.295C307.851 354.344 304.379 354.203 300.021 354.104C296.564 353.77 294.359 352.622 292.004 350.105C290.882 348.387 290.613 347.675 290.906 345.68C291.631 345.499 292.355 345.318 293.102 345.131C293.274 345.396 293.447 345.66 293.625 345.933C293.977 346.453 293.977 346.453 294.337 346.983C294.681 347.499 294.681 347.499 295.031 348.025C296.47 349.699 297.632 350.033 299.821 350.236C300.479 350.238 301.137 350.24 301.815 350.242C302.798 350.256 302.798 350.256 303.801 350.27C306.261 350.015 308.042 349.192 309.98 347.67C310.85 346.538 311.293 345.374 311.764 344.033Z" fill="#FB8E59"/>
<path d="M247.545 137.109C247.907 137.109 248.269 137.109 248.642 137.109C248.963 143.124 248.963 143.124 246.996 145.891C244.274 148.861 241.094 151.047 237.116 151.929C235.579 151.706 235.579 151.706 234.372 151.38C234.451 150.366 234.451 150.366 234.92 149.185C236.299 148.466 236.299 148.466 238.042 147.847C241.201 146.622 243.572 145.508 245.521 142.632C246.007 141.175 246.24 139.727 246.447 138.207C246.809 138.207 247.171 138.207 247.545 138.207C247.545 137.845 247.545 137.483 247.545 137.109Z" fill="#393C56"/>
<path d="M193.206 95.3992C193.387 96.1237 193.568 96.8482 193.755 97.5947C193.245 97.8147 192.734 98.0348 192.209 98.2615C187.803 100.255 184.804 102.107 182.228 106.377C181.504 106.196 180.779 106.014 180.033 105.828C180.108 102.829 181.341 101.284 183.313 99.1877C186.475 96.215 188.843 95.0096 193.206 95.3992Z" fill="#5A4F5F"/>
<path d="M254.132 80.0392C255.9 80.5914 257.465 81.3191 259.072 82.2347C259.434 82.4158 259.796 82.5969 260.169 82.7835C259.988 83.6892 259.807 84.5948 259.62 85.5279C258.399 85.2564 257.338 84.9391 256.196 84.4152C254.417 83.7886 252.995 83.7542 251.113 83.7784C250.507 83.7819 249.902 83.7855 249.278 83.7891C247.725 83.8717 246.312 84.0778 244.801 84.4302C244.62 83.5245 244.438 82.6189 244.252 81.6858C247.414 79.4778 250.394 79.6243 254.132 80.0392Z" fill="#594E5D"/>
<path d="M154.784 109.113C154.965 109.113 155.146 109.113 155.333 109.113C155.358 109.455 155.382 109.798 155.408 110.15C155.981 117.898 156.627 125.324 159.175 132.715C158.632 133.077 158.088 133.44 157.529 133.813C153.74 129.68 153.818 125.531 153.995 120.228C154.007 119.454 154.017 118.68 154.026 117.906C154.122 111.956 154.122 111.956 154.784 109.113Z" fill="#EAA33B"/>
<path d="M295.641 332.544C296.945 333.059 296.945 333.059 298.043 334.705C298.346 336.66 298.382 338.474 297.425 340.228C295.833 341.024 294.769 340.69 293.103 340.194C291.741 338.152 291.751 337.121 292.005 334.705C293.131 333.037 293.601 332.495 295.641 332.544Z" fill="#FB894B"/>
<path d="M201.439 64.1074C201.802 64.1074 202.164 64.1074 202.537 64.1074C201.512 68.4286 199.398 71.2069 196.652 74.5811C195.665 75.8449 194.93 76.9179 194.304 78.3782C194.666 78.5594 195.028 78.7405 195.402 78.9271C194.858 78.9271 194.315 78.9271 193.755 78.9271C193.755 79.2894 193.755 79.6516 193.755 80.0249C192.668 80.3871 191.581 80.7494 190.462 81.1226C190.157 79.0875 190.416 78.4412 191.647 76.7423C192.172 76.1503 192.704 75.5638 193.24 74.9821C193.797 74.354 194.351 73.7244 194.904 73.0931C195.313 72.6271 195.313 72.6271 195.73 72.1516C197.433 70.1404 198.888 67.9489 200.342 65.7541C200.704 65.2107 201.066 64.6673 201.439 64.1074Z" fill="#F29859"/>
<path d="M341.404 155.227C344.264 155.522 346.476 156.189 349.123 157.388C351.466 158.441 353.773 159.394 356.224 160.166C356.224 160.71 356.224 161.253 356.224 161.813C351.938 161.66 348.402 160.285 344.464 158.726C343.05 158.182 341.768 157.763 340.306 157.422C340.306 157.06 340.306 156.698 340.306 156.324C340.669 156.324 341.031 156.324 341.404 156.324C341.404 155.962 341.404 155.6 341.404 155.227Z" fill="#AC5B56"/>
<path d="M311.764 333.055C313.342 334.05 313.342 334.05 314.508 335.251C314.508 335.794 314.508 336.338 314.508 336.898C313.952 336.81 313.952 336.81 313.384 336.72C312.895 336.654 312.405 336.588 311.901 336.52C311.417 336.45 310.933 336.38 310.434 336.308C308.698 336.358 308.158 336.95 306.824 337.995C306.28 337.814 305.737 337.633 305.177 337.447C305.28 336.177 305.28 336.177 305.726 334.702C307.679 333.084 309.262 332.691 311.764 333.055Z" fill="#FB9465"/>
<path d="M54.3389 52.5762C55.6973 52.8479 55.6973 52.8479 57.0833 53.125C57.137 53.4243 57.1908 53.7236 57.2462 54.032C57.8127 56.889 58.6676 59.3683 59.9349 61.9907C60.3765 63.0048 60.3765 63.0048 60.3765 64.1026C59.3688 63.989 59.3688 63.989 58.181 63.5537C57.4049 62.4152 57.4049 62.4152 56.7402 60.9809C56.5103 60.4849 56.2803 59.9889 56.0434 59.4779C55.0007 57.05 54.3389 55.2344 54.3389 52.5762Z" fill="#F9C958"/>
<path d="M167.957 98.6914C168.32 98.6914 168.682 98.6914 169.055 98.6914C169.049 99.1282 169.044 99.565 169.038 100.015C169.015 102.021 169.001 104.027 168.987 106.033C168.977 106.72 168.968 107.407 168.959 108.115C168.935 112.623 169.065 116.916 170.805 121.127C171.337 122.518 171.113 123.094 170.702 124.489C170.344 123.632 169.991 122.774 169.638 121.916C169.441 121.438 169.244 120.961 169.04 120.469C168.167 118.065 167.883 115.773 167.784 113.226C167.761 112.665 167.738 112.104 167.714 111.527C167.692 110.948 167.671 110.369 167.649 109.772C167.625 109.182 167.601 108.592 167.577 107.985C167.519 106.534 167.463 105.083 167.409 103.631C166.865 103.903 166.865 103.903 166.311 104.18C166.854 102.369 167.398 100.558 167.957 98.6914Z" fill="#EDAD61"/>
<path d="M320.546 156.316C321.922 156.87 323.297 157.424 324.673 157.978C325.665 158.367 326.67 158.724 327.681 159.061C327.681 159.423 327.681 159.785 327.681 160.159C327.319 160.159 326.957 160.159 326.583 160.159C326.583 161.064 326.583 161.97 326.583 162.903C325.954 162.366 325.325 161.828 324.697 161.291C324.346 160.991 323.996 160.692 323.635 160.384C323.142 159.957 322.654 159.522 322.192 159.061C322.221 159.636 322.221 159.636 322.25 160.223C322.265 160.722 322.28 161.222 322.295 161.737C322.314 162.233 322.334 162.73 322.353 163.242C322.3 163.673 322.247 164.105 322.192 164.55C321.649 164.912 321.106 165.274 320.546 165.647C320.546 162.568 320.546 159.489 320.546 156.316Z" fill="#CB685C"/>
<path d="M321.644 158.512C323.093 159.598 324.542 160.685 326.035 161.805C325.672 163.435 325.31 165.065 324.937 166.745C324.394 166.201 323.85 165.658 323.29 165.098C323.29 164.736 323.29 164.374 323.29 164C322.747 163.819 322.204 163.638 321.644 163.452C321.644 161.821 321.644 160.191 321.644 158.512Z" fill="#FCEEE6"/>
<path d="M307.373 127.238C308.443 128.309 308.938 129.123 309.602 130.463C309.79 130.835 309.977 131.207 310.171 131.591C310.652 132.695 310.959 133.747 311.215 134.923C307.941 134.221 306.558 132.542 304.628 129.983C305.353 129.802 306.077 129.62 306.824 129.434C307.005 128.709 307.186 127.985 307.373 127.238Z" fill="#4F4B60"/>
<path d="M172.897 106.922C173.078 106.922 173.259 106.922 173.446 106.922C173.442 107.564 173.442 107.564 173.437 108.219C173.426 110.2 173.419 112.18 173.412 114.16C173.407 114.833 173.402 115.507 173.398 116.2C173.386 120.636 173.583 125.009 173.995 129.426C173.632 129.426 173.27 129.426 172.897 129.426C171.282 122.056 171.277 114.269 172.897 106.922Z" fill="#EEA767"/>
<path d="M154.785 109.113C154.966 109.113 155.147 109.113 155.334 109.113C155.696 113.823 156.058 118.532 156.431 123.384C155.707 123.565 154.982 123.746 154.236 123.933C154.22 121.978 154.21 120.022 154.201 118.067C154.197 117.514 154.192 116.961 154.188 116.391C154.186 115.855 154.184 115.319 154.182 114.767C154.179 114.276 154.176 113.784 154.173 113.278C154.237 111.838 154.465 110.517 154.785 109.113Z" fill="#EF9945"/>
<path d="M158.627 132.715C158.989 132.715 159.351 132.715 159.724 132.715C160.184 133.605 160.641 134.498 161.096 135.391C161.351 135.887 161.606 136.384 161.868 136.896C162.469 138.204 162.469 138.204 162.469 139.301C162.831 139.301 163.193 139.301 163.566 139.301C163.929 140.207 164.291 141.113 164.664 142.046C164.121 141.865 163.577 141.684 163.018 141.497C162.836 142.221 162.655 142.946 162.469 143.692C162.29 143.249 162.111 142.805 161.926 142.348C161.686 141.762 161.447 141.175 161.199 140.571C160.964 139.991 160.728 139.412 160.485 138.815C159.773 137.1 159.773 137.1 158.774 135.62C158.545 135.205 158.315 134.789 158.078 134.361C158.259 133.818 158.44 133.275 158.627 132.715Z" fill="#ED975A"/>
<path d="M77.9412 20.1934C78.3034 20.3745 78.6657 20.5556 79.0389 20.7422C78.5429 21.1194 78.047 21.4965 77.5359 21.885C76.882 22.3845 76.228 22.8841 75.5741 23.3837C75.0843 23.7557 75.0843 23.7557 74.5846 24.1352C73.3013 25.1174 72.0536 26.0783 70.9194 27.2323C70.2568 27.8776 70.2568 27.8776 69.1591 27.8776C68.1941 28.7636 67.2606 29.6841 66.3461 30.622C65.8466 31.1315 65.347 31.6409 64.8324 32.1657C64.4489 32.562 64.0654 32.9582 63.6703 33.3664C63.6703 31.156 64.3906 30.7618 65.9344 29.2155C69.4419 25.7985 73.5408 22.3935 77.9412 20.1934Z" fill="#FCF4DA"/>
<path d="M311.216 133.824C311.927 134.335 312.635 134.851 313.342 135.368C313.935 135.798 313.935 135.798 314.539 136.236C315.607 137.117 315.607 137.117 316.704 138.764C316.704 139.308 316.704 139.851 316.704 140.411C314.473 139.658 313.041 138.643 311.318 137.049C310.885 136.651 310.451 136.254 310.004 135.844C309.679 135.54 309.355 135.235 309.02 134.922C309.382 134.741 309.745 134.56 310.118 134.373C310.48 134.554 310.842 134.735 311.216 134.922C311.216 134.56 311.216 134.197 311.216 133.824Z" fill="#96514F"/>
<path d="M301.336 61.916C301.517 61.916 301.698 61.916 301.885 61.916C301.93 63.4715 301.962 65.0257 301.988 66.5815C302.008 67.2331 302.008 67.2331 302.029 67.8979C302.068 71.0391 301.497 73.3063 300.238 76.1868C300.057 76.1868 299.876 76.1868 299.689 76.1868C299.567 73.1354 299.799 70.8607 300.787 67.9537C301.041 65.9457 301.199 63.935 301.336 61.916Z" fill="#FAC960"/>
<path d="M248.094 177.731C247.065 179.858 247.065 179.858 246.447 180.475C244.981 180.553 243.525 180.499 242.056 180.475C242.056 179.751 242.056 179.026 242.056 178.28C244.106 177.798 245.99 177.682 248.094 177.731Z" fill="#D86458"/>
<path d="M281.575 93.2129C281.756 93.2129 281.937 93.2129 282.124 93.2129C282.706 95.4102 283.186 97.5206 283.222 99.7994C282.291 101.277 281.489 101.67 279.928 102.544C279.551 101.309 279.551 101.309 279.379 99.7994C279.628 99.4711 279.878 99.1428 280.134 98.8046C281.458 97.0227 281.392 95.4071 281.575 93.2129Z" fill="#A76710"/>
<path d="M181.679 121.734C183.853 121.916 186.027 122.097 188.266 122.283C188.266 122.464 188.266 122.646 188.266 122.832C186.998 123.013 185.73 123.194 184.424 123.381C184.424 123.924 184.424 124.468 184.424 125.028C185.148 125.209 185.873 125.39 186.619 125.577C183.656 125.385 183.656 125.385 182.228 125.028C181.371 123.964 181.371 123.964 181.131 122.832C181.312 122.47 181.493 122.108 181.679 121.734Z" fill="#614D56"/>
<path d="M99.3469 2.63414C99.1657 2.81527 98.9846 2.9964 98.798 3.18301C99.1602 3.54527 99.5225 3.90753 99.8957 4.28077C97.3599 4.64303 94.8241 5.00529 92.2114 5.37852C92.7603 3.73189 92.7603 3.73189 93.6973 3.19159C94.0786 3.05291 94.46 2.91424 94.8529 2.77136C95.4186 2.55485 95.4186 2.55485 95.9957 2.33397C97.3058 2.05201 98.0879 2.21544 99.3469 2.63414Z" fill="#F3C960"/>
<path d="M57.6324 58.0801C58.8555 59.3031 59.1102 60.0877 59.6221 61.7164C59.765 62.165 59.908 62.6135 60.0552 63.0757C60.1614 63.4196 60.2675 63.7634 60.3768 64.1177C58.3014 63.7318 58.3014 63.7318 57.2208 62.2653C56.5347 60.8245 56.5347 60.8245 56.5347 59.1778C56.8969 59.1778 57.2592 59.1778 57.6324 59.1778C57.6324 58.8156 57.6324 58.4533 57.6324 58.0801Z" fill="#F6CE69"/>
<path d="M343.599 509.256C343.78 509.256 343.961 509.256 344.148 509.256C344.148 510.162 344.148 511.067 344.148 512C339.801 512 335.454 512 330.975 512C330.975 511.819 330.975 511.638 330.975 511.451C334.778 511.451 338.582 511.451 342.501 511.451C342.501 511.089 342.501 510.727 342.501 510.354C342.863 510.354 343.226 510.354 343.599 510.354C343.599 509.991 343.599 509.629 343.599 509.256Z" fill="#FD7521"/>
<path d="M130.634 31.1738C130.815 31.7172 130.996 32.2606 131.182 32.8205C130.872 33.1247 130.561 33.4289 130.241 33.7424C129.839 34.14 129.436 34.5377 129.021 34.9474C128.62 35.3422 128.219 35.737 127.806 36.1437C126.76 37.1403 126.76 37.1403 126.243 38.3092C125.88 38.1281 125.518 37.947 125.145 37.7604C126.519 35.093 128.485 33.2164 130.634 31.1738Z" fill="#30364F"/>
<path d="M150.943 223.283C150.943 225.013 150.693 225.665 149.845 227.125C148.437 228.533 147.388 228.52 145.454 228.772C145.454 228.41 145.454 228.047 145.454 227.674C146.376 226.885 146.376 226.885 147.581 226.028C148.801 225.153 149.879 224.347 150.943 223.283Z" fill="#F4CA6E"/>
<path d="M321.644 160.709C321.825 161.252 322.006 161.796 322.193 162.356C322.736 162.356 323.279 162.356 323.839 162.356C325.011 163.528 325.284 164.038 325.486 165.649C325.124 166.011 324.761 166.373 324.388 166.747C324.241 166.305 324.094 165.864 323.942 165.409C323.727 164.945 323.512 164.48 323.29 164.002C322.747 163.821 322.204 163.64 321.644 163.453C321.644 162.548 321.644 161.642 321.644 160.709Z" fill="#FBCEBD"/>
<path d="M311.764 333.068C311.764 333.249 311.764 333.43 311.764 333.617C311.152 333.753 310.541 333.888 309.911 334.028C307.913 334.503 307.913 334.503 307.132 335.812C306.774 336.896 306.774 336.896 306.824 338.008C306.28 337.827 305.737 337.646 305.177 337.459C305.28 336.19 305.28 336.19 305.726 334.715C307.708 333.072 309.237 332.892 311.764 333.068Z" fill="#F99F74"/>
<path d="M310.563 132.306C311.215 133.266 311.215 133.266 311.215 134.913C308.059 134.021 308.059 134.021 306.824 132.168C309.298 131.433 309.298 131.433 310.563 132.306Z" fill="#6A5460"/>
<path d="M354.988 159.797C355.599 159.984 355.599 159.984 356.223 160.175C356.223 160.718 356.223 161.262 356.223 161.821C354.593 161.64 352.962 161.459 351.283 161.273C352.63 160.025 353.115 159.585 354.988 159.797Z" fill="#B5645B"/>
<path d="M167.957 98.6914C168.32 98.6914 168.682 98.6914 169.055 98.6914C168.841 102.015 168.841 102.015 168.506 103.082C167.42 103.626 167.42 103.626 166.311 104.18C166.854 102.369 167.398 100.558 167.957 98.6914Z" fill="#F29961"/>
<path d="M191.01 77.8398C191.191 78.3832 191.372 78.9266 191.559 79.4865C192.464 78.9431 193.37 78.3997 194.303 77.8398C194.665 78.2021 195.027 78.5644 195.401 78.9376C194.857 78.9376 194.314 78.9376 193.754 78.9376C193.754 79.2999 193.754 79.6621 193.754 80.0354C192.667 80.3976 191.58 80.7599 190.461 81.1331C190.437 80.2186 190.438 79.3032 190.461 78.3887C190.642 78.2076 190.823 78.0265 191.01 77.8398Z" fill="#EFA858"/>
<path d="M274.989 255.666C276.619 255.847 278.249 256.028 279.929 256.215C278.466 257.19 277.169 257.793 275.538 258.41C275.357 257.505 275.175 256.599 274.989 255.666Z" fill="#FE781C"/>
<path d="M315.606 153.586C317.767 154.306 319.024 155.188 320.546 156.879C318.916 156.336 317.286 155.792 315.606 155.233C315.606 154.689 315.606 154.146 315.606 153.586Z" fill="#50475F"/>
<path d="M223.943 103.637C225.075 103.877 225.075 103.877 226.139 104.186C225.957 104.91 225.776 105.635 225.59 106.381C225.408 106.019 225.227 105.657 225.041 105.283C224.678 106.189 224.316 107.095 223.943 108.028C223.762 108.028 223.581 108.028 223.394 108.028C223.371 106.747 223.372 105.466 223.394 104.186C223.575 104.004 223.756 103.823 223.943 103.637Z" fill="#615163"/>
<path d="M278.831 187.059C278.831 188.705 278.831 188.705 277.733 189.906C277.371 190.234 277.009 190.562 276.635 190.901C276.092 190.72 275.549 190.538 274.989 190.352C276.257 189.265 277.525 188.178 278.831 187.059Z" fill="#2C3149"/>
<path d="M311.215 149.73C313.281 150.675 314.591 151.922 316.155 153.573C314.508 153.573 314.508 153.573 313.627 152.732C313.34 152.376 313.054 152.019 312.758 151.652C312.468 151.295 312.177 150.938 311.877 150.571C311.658 150.294 311.44 150.016 311.215 149.73Z" fill="#D07A6D"/>
<path d="M321.095 158.512C321.276 158.512 321.457 158.512 321.644 158.512C321.825 160.504 322.006 162.497 322.192 164.549C321.649 164.912 321.106 165.274 320.546 165.647C320.727 163.292 320.908 160.938 321.095 158.512Z" fill="#C38579"/>
<path d="M150.942 126.68C153.025 127.498 154.022 128.742 155.333 130.522C154.79 130.522 154.247 130.522 153.687 130.522C153.687 130.16 153.687 129.797 153.687 129.424C153.143 129.243 152.6 129.062 152.04 128.875C152.04 128.513 152.04 128.151 152.04 127.777C151.678 127.777 151.316 127.777 150.942 127.777C150.942 127.415 150.942 127.053 150.942 126.68Z" fill="#2C2837"/>
<path d="M144.905 122.844C147.557 123.071 148.652 124.196 150.394 126.137C148.201 125.8 146.675 124.68 144.905 123.393C144.905 123.211 144.905 123.03 144.905 122.844Z" fill="#1F1D39"/>
<path d="M315.606 120.652C315.787 120.652 315.968 120.652 316.155 120.652C316.155 122.283 316.155 123.913 316.155 125.592C315.249 124.687 314.344 123.781 313.411 122.848C313.954 122.848 314.497 122.848 315.057 122.848C315.238 122.123 315.42 121.399 315.606 120.652Z" fill="#4F4C5F"/>
<path d="M192.657 120.652C193.019 120.652 193.382 120.652 193.755 120.652C193.755 121.377 193.755 122.101 193.755 122.848C192.383 124.083 192.383 124.083 191.01 125.043C191.311 123.191 191.59 122.254 192.657 120.652Z" fill="#E99A86"/>
<path d="M161.371 172.795C161.733 172.795 162.096 172.795 162.469 172.795C162.159 174.589 161.646 175.444 160.273 176.637C159.911 176.456 159.549 176.275 159.176 176.088C159.875 174.969 160.608 173.872 161.371 172.795Z" fill="#D6982C"/>
</svg>
